<svg width="309" height="130" viewBox="0 0 309 130" fill="none" xmlns="http://www.w3.org/2000/svg">
<rect x="53.4999" y="82.5" width="255" height="47" rx="4.5" fill="white" stroke="black"/>
<path d="M69.0568 111V102.273H72.0056C72.6903 102.273 73.2499 102.396 73.6846 102.643C74.1221 102.888 74.446 103.219 74.6562 103.636C74.8664 104.054 74.9715 104.52 74.9715 105.034C74.9715 105.548 74.8664 106.016 74.6562 106.436C74.4488 106.857 74.1278 107.192 73.6931 107.442C73.2585 107.689 72.7016 107.812 72.0227 107.812H69.909V106.875H71.9886C72.4573 106.875 72.8337 106.794 73.1178 106.632C73.4019 106.47 73.6079 106.251 73.7357 105.976C73.8664 105.697 73.9318 105.384 73.9318 105.034C73.9318 104.685 73.8664 104.372 73.7357 104.097C73.6079 103.821 73.4005 103.605 73.1136 103.449C72.8266 103.29 72.446 103.21 71.9715 103.21H70.1136V111H69.0568ZM77.5433 102.273V111H76.5376V102.273H77.5433ZM81.3114 111.153C80.8966 111.153 80.5202 111.075 80.1821 110.919C79.844 110.76 79.5756 110.531 79.3767 110.233C79.1779 109.932 79.0784 109.568 79.0784 109.142C79.0784 108.767 79.1523 108.463 79.3 108.23C79.4477 107.994 79.6452 107.81 79.8923 107.676C80.1395 107.543 80.4122 107.443 80.7105 107.378C81.0117 107.31 81.3142 107.256 81.6182 107.216C82.0159 107.165 82.3384 107.126 82.5855 107.101C82.8355 107.072 83.0173 107.026 83.131 106.96C83.2475 106.895 83.3057 106.781 83.3057 106.619V106.585C83.3057 106.165 83.1906 105.838 82.9605 105.605C82.7332 105.372 82.3881 105.256 81.925 105.256C81.4449 105.256 81.0685 105.361 80.7957 105.571C80.523 105.781 80.3313 106.006 80.2205 106.244L79.2659 105.903C79.4364 105.506 79.6636 105.196 79.9477 104.974C80.2347 104.75 80.5472 104.594 80.8852 104.506C81.2261 104.415 81.5614 104.369 81.8909 104.369C82.1011 104.369 82.3426 104.395 82.6154 104.446C82.8909 104.494 83.1565 104.595 83.4122 104.749C83.6707 104.902 83.8852 105.134 84.0557 105.443C84.2261 105.753 84.3114 106.168 84.3114 106.688V111H83.3057V110.114H83.2546C83.1864 110.256 83.0727 110.408 82.9136 110.57C82.7546 110.732 82.5429 110.869 82.2787 110.983C82.0145 111.097 81.6921 111.153 81.3114 111.153ZM81.4648 110.25C81.8625 110.25 82.1977 110.172 82.4705 110.016C82.746 109.859 82.9534 109.658 83.0926 109.411C83.2347 109.163 83.3057 108.903 83.3057 108.631V107.71C83.2631 107.761 83.1693 107.808 83.0244 107.851C82.8824 107.891 82.7176 107.926 82.5301 107.957C82.3455 107.986 82.1651 108.011 81.9889 108.034C81.8156 108.054 81.675 108.071 81.5671 108.085C81.3057 108.119 81.0614 108.175 80.8341 108.251C80.6097 108.325 80.4279 108.437 80.2886 108.588C80.1523 108.736 80.0841 108.937 80.0841 109.193C80.0841 109.543 80.2134 109.807 80.4719 109.986C80.7332 110.162 81.0642 110.25 81.4648 110.25ZM88.806 111.136C88.1924 111.136 87.664 110.991 87.2208 110.702C86.7776 110.412 86.4367 110.013 86.1981 109.504C85.9595 108.996 85.8401 108.415 85.8401 107.761C85.8401 107.097 85.9623 106.51 86.2066 106.001C86.4538 105.49 86.7975 105.091 87.2379 104.804C87.681 104.514 88.1981 104.369 88.789 104.369C89.2492 104.369 89.664 104.455 90.0333 104.625C90.4026 104.795 90.7052 105.034 90.941 105.341C91.1768 105.648 91.3231 106.006 91.3799 106.415H90.3742C90.2975 106.116 90.1271 105.852 89.8629 105.622C89.6015 105.389 89.2492 105.273 88.806 105.273C88.414 105.273 88.0703 105.375 87.7748 105.58C87.4822 105.781 87.2535 106.067 87.0887 106.436C86.9268 106.803 86.8458 107.233 86.8458 107.727C86.8458 108.233 86.9254 108.673 87.0845 109.048C87.2464 109.423 87.4737 109.714 87.7663 109.922C88.0617 110.129 88.4083 110.233 88.806 110.233C89.0674 110.233 89.3046 110.188 89.5177 110.097C89.7308 110.006 89.9112 109.875 90.0589 109.705C90.2066 109.534 90.3117 109.33 90.3742 109.091H91.3799C91.3231 109.477 91.1825 109.825 90.958 110.135C90.7364 110.442 90.4424 110.686 90.0759 110.868C89.7123 111.047 89.289 111.136 88.806 111.136ZM95.5944 111.136C94.9637 111.136 94.4197 110.997 93.9623 110.719C93.5078 110.438 93.1569 110.045 92.9097 109.543C92.6654 109.037 92.5433 108.449 92.5433 107.778C92.5433 107.108 92.6654 106.517 92.9097 106.006C93.1569 105.491 93.5006 105.091 93.941 104.804C94.3842 104.514 94.9012 104.369 95.4921 104.369C95.833 104.369 96.1697 104.426 96.5021 104.54C96.8345 104.653 97.137 104.838 97.4097 105.094C97.6825 105.347 97.8998 105.682 98.0617 106.099C98.2237 106.517 98.3046 107.031 98.3046 107.642V108.068H93.2592V107.199H97.2819C97.2819 106.83 97.208 106.5 97.0603 106.21C96.9154 105.92 96.708 105.692 96.4381 105.524C96.1711 105.357 95.8558 105.273 95.4921 105.273C95.0916 105.273 94.745 105.372 94.4524 105.571C94.1626 105.767 93.9396 106.023 93.7833 106.338C93.6271 106.653 93.5489 106.991 93.5489 107.352V107.932C93.5489 108.426 93.6342 108.845 93.8046 109.189C93.9779 109.53 94.218 109.79 94.5248 109.969C94.8316 110.145 95.1881 110.233 95.5944 110.233C95.8586 110.233 96.0972 110.196 96.3103 110.122C96.5262 110.045 96.7123 109.932 96.8685 109.781C97.0248 109.628 97.1455 109.437 97.2308 109.21L98.2024 109.483C98.1001 109.812 97.9282 110.102 97.6867 110.352C97.4453 110.599 97.147 110.793 96.7918 110.932C96.4367 111.068 96.0376 111.136 95.5944 111.136ZM104.215 107.062V111H103.209V102.273H104.215V105.477H104.3C104.454 105.139 104.684 104.871 104.991 104.672C105.3 104.47 105.712 104.369 106.227 104.369C106.673 104.369 107.063 104.459 107.398 104.638C107.734 104.814 107.994 105.085 108.178 105.452C108.366 105.815 108.459 106.278 108.459 106.841V111H107.454V106.909C107.454 106.389 107.319 105.987 107.049 105.703C106.782 105.416 106.411 105.273 105.937 105.273C105.607 105.273 105.312 105.342 105.05 105.482C104.792 105.621 104.587 105.824 104.437 106.091C104.289 106.358 104.215 106.682 104.215 107.062ZM112.958 111.136C112.367 111.136 111.849 110.996 111.403 110.714C110.96 110.433 110.613 110.04 110.363 109.534C110.116 109.028 109.992 108.437 109.992 107.761C109.992 107.08 110.116 106.484 110.363 105.976C110.613 105.467 110.96 105.072 111.403 104.791C111.849 104.51 112.367 104.369 112.958 104.369C113.549 104.369 114.066 104.51 114.51 104.791C114.956 105.072 115.302 105.467 115.549 105.976C115.799 106.484 115.924 107.08 115.924 107.761C115.924 108.437 115.799 109.028 115.549 109.534C115.302 110.04 114.956 110.433 114.51 110.714C114.066 110.996 113.549 111.136 112.958 111.136ZM112.958 110.233C113.407 110.233 113.777 110.118 114.066 109.888C114.356 109.658 114.571 109.355 114.71 108.98C114.849 108.605 114.919 108.199 114.919 107.761C114.919 107.324 114.849 106.916 114.71 106.538C114.571 106.161 114.356 105.855 114.066 105.622C113.777 105.389 113.407 105.273 112.958 105.273C112.51 105.273 112.14 105.389 111.85 105.622C111.561 105.855 111.346 106.161 111.207 106.538C111.068 106.916 110.998 107.324 110.998 107.761C110.998 108.199 111.068 108.605 111.207 108.98C111.346 109.355 111.561 109.658 111.85 109.888C112.14 110.118 112.51 110.233 112.958 110.233ZM118.465 102.273V111H117.459V102.273H118.465ZM122.779 111.136C122.233 111.136 121.752 110.999 121.334 110.723C120.916 110.445 120.59 110.053 120.354 109.547C120.118 109.038 120 108.438 120 107.744C120 107.057 120.118 106.46 120.354 105.955C120.59 105.449 120.918 105.058 121.338 104.783C121.759 104.507 122.245 104.369 122.796 104.369C123.222 104.369 123.559 104.44 123.806 104.582C124.056 104.722 124.246 104.881 124.377 105.06C124.51 105.236 124.614 105.381 124.688 105.494H124.773V102.273H125.779V111H124.807V109.994H124.688C124.614 110.114 124.509 110.264 124.372 110.446C124.236 110.625 124.041 110.786 123.789 110.928C123.536 111.067 123.199 111.136 122.779 111.136ZM122.915 110.233C123.318 110.233 123.659 110.128 123.938 109.918C124.216 109.705 124.428 109.411 124.573 109.036C124.718 108.658 124.79 108.222 124.79 107.727C124.79 107.239 124.719 106.811 124.577 106.445C124.435 106.075 124.225 105.788 123.946 105.584C123.668 105.376 123.324 105.273 122.915 105.273C122.489 105.273 122.134 105.382 121.85 105.601C121.568 105.817 121.357 106.111 121.215 106.483C121.076 106.852 121.006 107.267 121.006 107.727C121.006 108.193 121.077 108.616 121.219 108.997C121.364 109.375 121.577 109.676 121.858 109.901C122.142 110.122 122.495 110.233 122.915 110.233ZM130.505 111.136C129.874 111.136 129.33 110.997 128.872 110.719C128.418 110.438 128.067 110.045 127.82 109.543C127.576 109.037 127.453 108.449 127.453 107.778C127.453 107.108 127.576 106.517 127.82 106.006C128.067 105.491 128.411 105.091 128.851 104.804C129.294 104.514 129.811 104.369 130.402 104.369C130.743 104.369 131.08 104.426 131.412 104.54C131.745 104.653 132.047 104.838 132.32 105.094C132.593 105.347 132.81 105.682 132.972 106.099C133.134 106.517 133.215 107.031 133.215 107.642V108.068H128.169V107.199H132.192C132.192 106.83 132.118 106.5 131.97 106.21C131.826 105.92 131.618 105.692 131.348 105.524C131.081 105.357 130.766 105.273 130.402 105.273C130.002 105.273 129.655 105.372 129.363 105.571C129.073 105.767 128.85 106.023 128.693 106.338C128.537 106.653 128.459 106.991 128.459 107.352V107.932C128.459 108.426 128.544 108.845 128.715 109.189C128.888 109.53 129.128 109.79 129.435 109.969C129.742 110.145 130.098 110.233 130.505 110.233C130.769 110.233 131.007 110.196 131.22 110.122C131.436 110.045 131.622 109.932 131.779 109.781C131.935 109.628 132.056 109.437 132.141 109.21L133.113 109.483C133.01 109.812 132.838 110.102 132.597 110.352C132.355 110.599 132.057 110.793 131.702 110.932C131.347 111.068 130.948 111.136 130.505 111.136ZM134.745 111V104.455H135.716V105.443H135.784C135.904 105.119 136.12 104.857 136.432 104.655C136.745 104.453 137.097 104.352 137.489 104.352C137.563 104.352 137.655 104.354 137.766 104.357C137.877 104.359 137.961 104.364 138.017 104.369V105.392C137.983 105.384 137.905 105.371 137.783 105.354C137.664 105.334 137.537 105.324 137.404 105.324C137.086 105.324 136.801 105.391 136.551 105.524C136.304 105.655 136.108 105.837 135.963 106.07C135.821 106.3 135.75 106.562 135.75 106.858V111H134.745ZM145.431 104.455V105.307H142.039V104.455H145.431ZM143.028 102.886H144.033V109.125C144.033 109.409 144.075 109.622 144.157 109.764C144.242 109.903 144.35 109.997 144.481 110.045C144.614 110.091 144.755 110.114 144.903 110.114C145.013 110.114 145.104 110.108 145.175 110.097C145.246 110.082 145.303 110.071 145.346 110.062L145.55 110.966C145.482 110.991 145.387 111.017 145.265 111.043C145.143 111.071 144.988 111.085 144.8 111.085C144.516 111.085 144.238 111.024 143.965 110.902C143.695 110.78 143.471 110.594 143.292 110.344C143.116 110.094 143.028 109.778 143.028 109.398V102.886ZM149.618 111.136C148.987 111.136 148.443 110.997 147.986 110.719C147.531 110.438 147.18 110.045 146.933 109.543C146.689 109.037 146.567 108.449 146.567 107.778C146.567 107.108 146.689 106.517 146.933 106.006C147.18 105.491 147.524 105.091 147.964 104.804C148.408 104.514 148.925 104.369 149.516 104.369C149.856 104.369 150.193 104.426 150.526 104.54C150.858 104.653 151.16 104.838 151.433 105.094C151.706 105.347 151.923 105.682 152.085 106.099C152.247 106.517 152.328 107.031 152.328 107.642V108.068H147.283V107.199H151.305C151.305 106.83 151.231 106.5 151.084 106.21C150.939 105.92 150.731 105.692 150.462 105.524C150.195 105.357 149.879 105.273 149.516 105.273C149.115 105.273 148.768 105.372 148.476 105.571C148.186 105.767 147.963 106.023 147.807 106.338C147.651 106.653 147.572 106.991 147.572 107.352V107.932C147.572 108.426 147.658 108.845 147.828 109.189C148.001 109.53 148.241 109.79 148.548 109.969C148.855 110.145 149.212 110.233 149.618 110.233C149.882 110.233 150.121 110.196 150.334 110.122C150.55 110.045 150.736 109.932 150.892 109.781C151.048 109.628 151.169 109.437 151.254 109.21L152.226 109.483C152.124 109.812 151.952 110.102 151.71 110.352C151.469 110.599 151.17 110.793 150.815 110.932C150.46 111.068 150.061 111.136 149.618 111.136ZM154.432 104.455L156 107.131L157.568 104.455H158.728L156.614 107.727L158.728 111H157.568L156 108.46L154.432 111H153.273L155.353 107.727L153.273 104.455H154.432ZM163.009 104.455V105.307H159.617V104.455H163.009ZM160.606 102.886H161.611V109.125C161.611 109.409 161.653 109.622 161.735 109.764C161.82 109.903 161.928 109.997 162.059 110.045C162.192 110.091 162.333 110.114 162.481 110.114C162.592 110.114 162.682 110.108 162.753 110.097C162.825 110.082 162.881 110.071 162.924 110.062L163.128 110.966C163.06 110.991 162.965 111.017 162.843 111.043C162.721 111.071 162.566 111.085 162.378 111.085C162.094 111.085 161.816 111.024 161.543 110.902C161.273 110.78 161.049 110.594 160.87 110.344C160.694 110.094 160.606 109.778 160.606 109.398V102.886Z" fill="black"/>
<path d="M54.0568 72V63.2727H55.1136V71.0625H59.1704V72H54.0568ZM62.5965 72.1534C62.1818 72.1534 61.8053 72.0753 61.4673 71.919C61.1292 71.7599 60.8607 71.5312 60.6619 71.233C60.463 70.9318 60.3636 70.5682 60.3636 70.142C60.3636 69.767 60.4374 69.4631 60.5852 69.2301C60.7329 68.9943 60.9303 68.8097 61.1775 68.6761C61.4247 68.5426 61.6974 68.4432 61.9957 68.3778C62.2968 68.3097 62.5994 68.2557 62.9033 68.2159C63.3011 68.1648 63.6235 68.1264 63.8707 68.1009C64.1207 68.0724 64.3025 68.0256 64.4161 67.9602C64.5326 67.8949 64.5908 67.7812 64.5908 67.6193V67.5852C64.5908 67.1648 64.4758 66.8381 64.2457 66.6051C64.0184 66.3722 63.6732 66.2557 63.2102 66.2557C62.7301 66.2557 62.3536 66.3608 62.0809 66.571C61.8082 66.7812 61.6164 67.0057 61.5056 67.2443L60.5511 66.9034C60.7215 66.5057 60.9488 66.196 61.2329 65.9744C61.5198 65.75 61.8323 65.5937 62.1704 65.5057C62.5113 65.4148 62.8465 65.3693 63.1761 65.3693C63.3863 65.3693 63.6278 65.3949 63.9005 65.446C64.1761 65.4943 64.4417 65.5952 64.6974 65.7486C64.9559 65.902 65.1704 66.1335 65.3408 66.4432C65.5113 66.7528 65.5965 67.1676 65.5965 67.6875V72H64.5908V71.1136H64.5397C64.4715 71.2557 64.3579 71.4077 64.1988 71.5696C64.0397 71.7315 63.8281 71.8693 63.5639 71.983C63.2997 72.0966 62.9772 72.1534 62.5965 72.1534ZM62.7499 71.25C63.1477 71.25 63.4829 71.1719 63.7556 71.0156C64.0312 70.8594 64.2386 70.6577 64.3778 70.4105C64.5198 70.1634 64.5908 69.9034 64.5908 69.6307V68.7102C64.5482 68.7614 64.4545 68.8082 64.3096 68.8509C64.1676 68.8906 64.0028 68.9261 63.8153 68.9574C63.6306 68.9858 63.4502 69.0114 63.2741 69.0341C63.1008 69.054 62.9602 69.071 62.8522 69.0852C62.5908 69.1193 62.3465 69.1747 62.1193 69.2514C61.8948 69.3253 61.713 69.4375 61.5738 69.5881C61.4374 69.7358 61.3693 69.9375 61.3693 70.1932C61.3693 70.5426 61.4985 70.8068 61.757 70.9858C62.0184 71.1619 62.3494 71.25 62.7499 71.25ZM67.5685 72V63.2727H68.5742V66.4943H68.6594C68.7332 66.3807 68.8355 66.2358 68.9662 66.0597C69.0997 65.8807 69.2901 65.7216 69.5372 65.5824C69.7872 65.4403 70.1253 65.3693 70.5514 65.3693C71.1026 65.3693 71.5884 65.5071 72.0088 65.7827C72.4293 66.0582 72.7574 66.4489 72.9932 66.9545C73.229 67.4602 73.3469 68.0568 73.3469 68.7443C73.3469 69.4375 73.229 70.0384 72.9932 70.5469C72.7574 71.0526 72.4307 71.4446 72.0131 71.723C71.5955 71.9986 71.1139 72.1364 70.5685 72.1364C70.148 72.1364 69.8114 72.0668 69.5585 71.9276C69.3057 71.7855 69.1111 71.625 68.9747 71.446C68.8384 71.2642 68.7332 71.1136 68.6594 70.9943H68.5401V72H67.5685ZM68.5571 68.7273C68.5571 69.2216 68.6296 69.6577 68.7744 70.0355C68.9193 70.4105 69.131 70.7045 69.4094 70.9176C69.6878 71.1278 70.0287 71.233 70.4321 71.233C70.8526 71.233 71.2034 71.1222 71.4847 70.9006C71.7688 70.6761 71.9818 70.375 72.1239 69.9972C72.2688 69.6165 72.3412 69.1932 72.3412 68.7273C72.3412 68.267 72.2702 67.8523 72.1281 67.483C71.9889 67.1108 71.7773 66.8168 71.4932 66.6009C71.2119 66.3821 70.8582 66.2727 70.4321 66.2727C70.023 66.2727 69.6793 66.3764 69.4009 66.5838C69.1225 66.7884 68.9122 67.0753 68.7702 67.4446C68.6281 67.8111 68.5571 68.2386 68.5571 68.7273ZM77.6296 72.1364C76.9989 72.1364 76.4548 71.9972 75.9975 71.7188C75.5429 71.4375 75.1921 71.0455 74.9449 70.5426C74.7006 70.0369 74.5784 69.4489 74.5784 68.7784C74.5784 68.108 74.7006 67.517 74.9449 67.0057C75.1921 66.4915 75.5358 66.0909 75.9761 65.804C76.4193 65.5142 76.9364 65.3693 77.5273 65.3693C77.8682 65.3693 78.2048 65.4261 78.5372 65.5398C78.8696 65.6534 79.1722 65.8381 79.4449 66.0938C79.7176 66.3466 79.935 66.6818 80.0969 67.0994C80.2588 67.517 80.3398 68.0312 80.3398 68.642V69.0682H75.2943V68.1989H79.3171C79.3171 67.8295 79.2432 67.5 79.0955 67.2102C78.9506 66.9205 78.7432 66.6918 78.4733 66.5241C78.2063 66.3565 77.8909 66.2727 77.5273 66.2727C77.1267 66.2727 76.7801 66.3722 76.4875 66.571C76.1977 66.767 75.9747 67.0227 75.8185 67.3381C75.6622 67.6534 75.5841 67.9915 75.5841 68.3523V68.9318C75.5841 69.4261 75.6693 69.8452 75.8398 70.1889C76.0131 70.5298 76.2531 70.7898 76.56 70.9688C76.8668 71.1449 77.2233 71.233 77.6296 71.233C77.8938 71.233 78.1324 71.196 78.3455 71.1222C78.5614 71.0455 78.7475 70.9318 78.9037 70.7812C79.06 70.6278 79.1807 70.4375 79.2659 70.2102L80.2375 70.483C80.1352 70.8125 79.9634 71.1023 79.7219 71.3523C79.4804 71.5994 79.1821 71.7926 78.827 71.9318C78.4719 72.0682 78.0727 72.1364 77.6296 72.1364ZM82.8753 63.2727V72H81.8696V63.2727H82.8753Z" fill="black"/>
<line x1="68.4999" y1="21" x2="68.4999" y2="53" stroke="black"/>
<circle cx="67.9999" cy="9" r="8.5" fill="white" stroke="black"/>
<path d="M65.7528 13V12.3608L68.1533 9.73295C68.4351 9.42519 68.6671 9.15767 68.8494 8.9304C69.0317 8.70076 69.1666 8.48532 69.2542 8.28409C69.3442 8.08049 69.3891 7.86742 69.3891 7.64489C69.3891 7.3892 69.3276 7.16785 69.2045 6.98082C69.0837 6.7938 68.918 6.64938 68.7073 6.54759C68.4966 6.44579 68.2599 6.39489 67.9971 6.39489C67.7177 6.39489 67.4739 6.45289 67.2656 6.56889C67.0596 6.68253 66.8998 6.84233 66.7862 7.0483C66.6749 7.25426 66.6193 7.49574 66.6193 7.77273H65.7812C65.7812 7.34659 65.8794 6.97254 66.0759 6.65057C66.2724 6.3286 66.5399 6.07765 66.8785 5.89773C67.2194 5.7178 67.6017 5.62784 68.0255 5.62784C68.4516 5.62784 68.8292 5.7178 69.1583 5.89773C69.4874 6.07765 69.7454 6.32031 69.9325 6.62571C70.1195 6.93111 70.213 7.27083 70.213 7.64489C70.213 7.91241 70.1645 8.17401 70.0674 8.42969C69.9727 8.683 69.807 8.96591 69.5703 9.27841C69.3359 9.58854 69.0104 9.96733 68.5937 10.4148L66.9602 12.1619V12.2188H70.3408V13H65.7528Z" fill="black"/>
<line x1="21" y1="105.5" x2="53" y2="105.5" stroke="black"/>
<circle cx="9" cy="106" r="8.5" transform="rotate(-90 9 106)" fill="white" stroke="black"/>
<path d="M9.80966 103.227V110.5H8.92898V104.151H8.88636L7.1108 105.33V104.435L8.92898 103.227H9.80966Z" fill="black"/>
<line x1="118.693" y1="67.0569" x2="118.5" y2="99.0564" stroke="black"/>
<circle cx="118.265" cy="55.0541" r="8.5" transform="rotate(0.345781 118.265 55.0541)" fill="white" stroke="black"/>
<path d="M118.451 59.1548C117.982 59.152 117.565 59.0689 117.199 58.9057C116.835 58.7426 116.547 58.5171 116.333 58.2293C116.122 57.9392 116.008 57.6036 115.991 57.2223L116.886 57.2277C116.903 57.4622 116.983 57.6651 117.124 57.8364C117.265 58.0053 117.45 58.1366 117.679 58.2304C117.908 58.3241 118.162 58.3718 118.441 58.3735C118.754 58.3753 119.031 58.3226 119.273 58.2151C119.515 58.1077 119.706 57.9573 119.844 57.764C119.983 57.5707 120.053 57.3462 120.054 57.0906C120.056 56.823 119.991 56.5871 119.86 56.3827C119.728 56.1759 119.535 56.0138 119.28 55.8962C119.025 55.7787 118.713 55.7188 118.344 55.7166L117.761 55.7131L117.766 54.9318L118.348 54.9353C118.637 54.9371 118.891 54.8865 119.109 54.7837C119.33 54.6808 119.503 54.5351 119.627 54.3465C119.754 54.1578 119.818 53.9357 119.819 53.68C119.821 53.4338 119.767 53.2192 119.66 53.0363C119.552 52.8533 119.399 52.7103 119.201 52.6073C119.005 52.5044 118.773 52.4521 118.506 52.4504C118.255 52.4489 118.018 52.4937 117.794 52.5847C117.574 52.6733 117.393 52.8036 117.252 52.9756C117.112 53.1452 117.035 53.3507 117.021 53.5921L116.169 53.5869C116.186 53.2059 116.302 52.8728 116.52 52.5876C116.737 52.3001 117.02 52.0769 117.369 51.918C117.72 51.7591 118.105 51.681 118.524 51.6835C118.974 51.6862 119.359 51.7797 119.68 51.9639C120.001 52.1458 120.247 52.3852 120.418 52.6822C120.589 52.9791 120.674 53.2992 120.672 53.6425C120.669 54.0521 120.559 54.4006 120.342 54.6881C120.127 54.9757 119.836 55.174 119.469 55.283L119.468 55.3398C119.927 55.4184 120.285 55.6158 120.541 55.9323C120.797 56.2463 120.923 56.6341 120.921 57.0958C120.918 57.4911 120.808 57.8456 120.591 58.1592C120.376 58.4704 120.084 58.7148 119.713 58.8925C119.343 59.0702 118.922 59.1576 118.451 59.1548Z" fill="black"/>
</svg>
