<svg width="270" height="96" viewBox="0 0 270 96" fill="none" xmlns="http://www.w3.org/2000/svg">
<line x1="9.5" y1="22" x2="9.5" y2="39" stroke="black"/>
<g filter="url(#filter0_d_20_53)">
<rect x="2.99994" y="16.2932" width="256" height="26.7068" rx="5" fill="white"/>
<rect x="1.99994" y="15.2932" width="258" height="28.7068" rx="6" stroke="#95D1F2" stroke-width="2"/>
</g>
<path d="M7.05682 12V3.27273H12.3239V4.21023H8.11364V7.15909H12.0511V8.09659H8.11364V11.0625H12.392V12H7.05682ZM14.0923 12V5.45455H15.0639V6.47727H15.1491C15.2855 6.12784 15.5057 5.85653 15.8097 5.66335C16.1136 5.46733 16.4787 5.36932 16.9048 5.36932C17.3366 5.36932 17.696 5.46733 17.983 5.66335C18.2727 5.85653 18.4986 6.12784 18.6605 6.47727H18.7287C18.8963 6.1392 19.1477 5.87074 19.483 5.67188C19.8182 5.47017 20.2202 5.36932 20.6889 5.36932C21.2741 5.36932 21.7528 5.55256 22.125 5.91903C22.4972 6.28267 22.6832 6.84943 22.6832 7.61932V12H21.6776V7.61932C21.6776 7.13636 21.5455 6.79119 21.2812 6.58381C21.017 6.37642 20.706 6.27273 20.348 6.27273C19.8878 6.27273 19.5313 6.41193 19.2784 6.69034C19.0256 6.96591 18.8991 7.31534 18.8991 7.73864V12H17.8764V7.51705C17.8764 7.14489 17.7557 6.84517 17.5142 6.6179C17.2727 6.38778 16.9616 6.27273 16.581 6.27273C16.3196 6.27273 16.0753 6.34233 15.848 6.48153C15.6236 6.62074 15.4418 6.81392 15.3026 7.06108C15.1662 7.3054 15.098 7.58807 15.098 7.90909V12H14.0923ZM26.4482 12.1534C26.0334 12.1534 25.657 12.0753 25.3189 11.919C24.9808 11.7599 24.7124 11.5312 24.5135 11.233C24.3146 10.9318 24.2152 10.5682 24.2152 10.142C24.2152 9.76705 24.2891 9.46307 24.4368 9.23011C24.5845 8.99432 24.782 8.80966 25.0291 8.67614C25.2763 8.54261 25.549 8.44318 25.8473 8.37784C26.1484 8.30966 26.451 8.25568 26.755 8.21591C27.1527 8.16477 27.4751 8.12642 27.7223 8.10085C27.9723 8.07244 28.1541 8.02557 28.2678 7.96023C28.3842 7.89489 28.4425 7.78125 28.4425 7.61932V7.58523C28.4425 7.16477 28.3274 6.83807 28.0973 6.60511C27.87 6.37216 27.5249 6.25568 27.0618 6.25568C26.5817 6.25568 26.2053 6.3608 25.9325 6.57102C25.6598 6.78125 25.468 7.00568 25.3572 7.24432L24.4027 6.90341C24.5732 6.50568 24.8004 6.19602 25.0845 5.97443C25.3714 5.75 25.6839 5.59375 26.022 5.50568C26.3629 5.41477 26.6982 5.36932 27.0277 5.36932C27.2379 5.36932 27.4794 5.39489 27.7521 5.44602C28.0277 5.49432 28.2933 5.59517 28.549 5.74858C28.8075 5.90199 29.022 6.13352 29.1925 6.44318C29.3629 6.75284 29.4482 7.16761 29.4482 7.6875V12H28.4425V11.1136H28.3913C28.3232 11.2557 28.2095 11.4077 28.0504 11.5696C27.8913 11.7315 27.6797 11.8693 27.4155 11.983C27.1513 12.0966 26.8288 12.1534 26.4482 12.1534ZM26.6016 11.25C26.9993 11.25 27.3345 11.1719 27.6072 11.0156C27.8828 10.8594 28.0902 10.6577 28.2294 10.4105C28.3714 10.1634 28.4425 9.90341 28.4425 9.63068V8.71023C28.3999 8.76136 28.3061 8.80824 28.1612 8.85085C28.0192 8.89062 27.8544 8.92614 27.6669 8.95739C27.4822 8.9858 27.3018 9.01136 27.1257 9.03409C26.9524 9.05398 26.8118 9.07102 26.7038 9.08523C26.4425 9.11932 26.1982 9.17472 25.9709 9.25142C25.7464 9.32528 25.5646 9.4375 25.4254 9.58807C25.2891 9.7358 25.2209 9.9375 25.2209 10.1932C25.2209 10.5426 25.3501 10.8068 25.6087 10.9858C25.87 11.1619 26.201 11.25 26.6016 11.25ZM31.2837 12V5.45455H32.2894V12H31.2837ZM31.7951 4.36364C31.5991 4.36364 31.43 4.29688 31.288 4.16335C31.1488 4.02983 31.0792 3.86932 31.0792 3.68182C31.0792 3.49432 31.1488 3.33381 31.288 3.20028C31.43 3.06676 31.5991 3 31.7951 3C31.9911 3 32.1587 3.06676 32.2979 3.20028C32.44 3.33381 32.511 3.49432 32.511 3.68182C32.511 3.86932 32.44 4.02983 32.2979 4.16335C32.1587 4.29688 31.9911 4.36364 31.7951 4.36364ZM35.1371 3.27273V12H34.1314V3.27273H35.1371Z" fill="black"/>
<g filter="url(#filter1_d_20_53)">
<rect x="51.5" y="62.5" width="170" height="24" rx="3.5" fill="#DC7618" stroke="#DC7618" stroke-width="3"/>
</g>
<path d="M93.4148 70.2727L96.0057 77.6193H96.108L98.6989 70.2727H99.8068L96.6023 79H95.5114L92.3068 70.2727H93.4148ZM103.165 79.1364C102.534 79.1364 101.99 78.9972 101.533 78.7188C101.078 78.4375 100.727 78.0455 100.48 77.5426C100.236 77.0369 100.114 76.4489 100.114 75.7784C100.114 75.108 100.236 74.517 100.48 74.0057C100.727 73.4915 101.071 73.0909 101.511 72.804C101.955 72.5142 102.472 72.3693 103.062 72.3693C103.403 72.3693 103.74 72.4261 104.072 72.5398C104.405 72.6534 104.707 72.8381 104.98 73.0938C105.253 73.3466 105.47 73.6818 105.632 74.0994C105.794 74.517 105.875 75.0312 105.875 75.642V76.0682H100.83V75.1989H104.852C104.852 74.8295 104.778 74.5 104.631 74.2102C104.486 73.9205 104.278 73.6918 104.009 73.5241C103.741 73.3565 103.426 73.2727 103.062 73.2727C102.662 73.2727 102.315 73.3722 102.023 73.571C101.733 73.767 101.51 74.0227 101.354 74.3381C101.197 74.6534 101.119 74.9915 101.119 75.3523V75.9318C101.119 76.4261 101.205 76.8452 101.375 77.1889C101.548 77.5298 101.788 77.7898 102.095 77.9688C102.402 78.1449 102.759 78.233 103.165 78.233C103.429 78.233 103.668 78.196 103.881 78.1222C104.097 78.0455 104.283 77.9318 104.439 77.7812C104.595 77.6278 104.716 77.4375 104.801 77.2102L105.773 77.483C105.67 77.8125 105.499 78.1023 105.257 78.3523C105.016 78.5994 104.717 78.7926 104.362 78.9318C104.007 79.0682 103.608 79.1364 103.165 79.1364ZM107.405 79V72.4545H108.376V73.4432H108.445C108.564 73.1193 108.78 72.8565 109.092 72.6548C109.405 72.4531 109.757 72.3523 110.149 72.3523C110.223 72.3523 110.315 72.3537 110.426 72.3565C110.537 72.3594 110.621 72.3636 110.678 72.3693V73.392C110.643 73.3835 110.565 73.3707 110.443 73.3537C110.324 73.3338 110.197 73.3239 110.064 73.3239C109.746 73.3239 109.462 73.3906 109.212 73.5241C108.964 73.6548 108.768 73.8366 108.624 74.0696C108.482 74.2997 108.411 74.5625 108.411 74.858V79H107.405ZM116.506 73.9205L115.603 74.1761C115.546 74.0256 115.462 73.8793 115.351 73.7372C115.243 73.5923 115.096 73.473 114.908 73.3793C114.721 73.2855 114.48 73.2386 114.188 73.2386C113.787 73.2386 113.453 73.331 113.186 73.5156C112.922 73.6974 112.79 73.929 112.79 74.2102C112.79 74.4602 112.881 74.6577 113.063 74.8026C113.245 74.9474 113.529 75.0682 113.915 75.1648L114.887 75.4034C115.472 75.5455 115.908 75.7628 116.195 76.0554C116.482 76.3452 116.625 76.7187 116.625 77.1761C116.625 77.5511 116.517 77.8864 116.301 78.1818C116.088 78.4773 115.79 78.7102 115.407 78.8807C115.023 79.0511 114.577 79.1364 114.069 79.1364C113.401 79.1364 112.848 78.9915 112.411 78.7017C111.973 78.4119 111.696 77.9886 111.58 77.4318L112.534 77.1932C112.625 77.5455 112.797 77.8097 113.05 77.9858C113.306 78.1619 113.64 78.25 114.051 78.25C114.52 78.25 114.892 78.1506 115.168 77.9517C115.446 77.75 115.586 77.5085 115.586 77.2273C115.586 77 115.506 76.8097 115.347 76.6562C115.188 76.5 114.944 76.3835 114.614 76.3068L113.523 76.0511C112.924 75.9091 112.483 75.6889 112.202 75.3906C111.924 75.0895 111.784 74.7131 111.784 74.2614C111.784 73.892 111.888 73.5653 112.096 73.2812C112.306 72.9972 112.591 72.7741 112.952 72.6122C113.316 72.4503 113.728 72.3693 114.188 72.3693C114.836 72.3693 115.344 72.5114 115.713 72.7955C116.086 73.0795 116.35 73.4545 116.506 73.9205ZM120.986 72.4545V73.3068H117.594V72.4545H120.986ZM118.582 70.8864H119.588V77.125C119.588 77.4091 119.629 77.6222 119.712 77.7642C119.797 77.9034 119.905 77.9972 120.036 78.0455C120.169 78.0909 120.31 78.1136 120.457 78.1136C120.568 78.1136 120.659 78.108 120.73 78.0966C120.801 78.0824 120.858 78.071 120.901 78.0625L121.105 78.9659C121.037 78.9915 120.942 79.017 120.82 79.0426C120.697 79.071 120.543 79.0852 120.355 79.0852C120.071 79.0852 119.793 79.0241 119.52 78.902C119.25 78.7798 119.026 78.5938 118.847 78.3438C118.67 78.0938 118.582 77.7784 118.582 77.3977V70.8864ZM126.624 76.3239V72.4545H127.629V79H126.624V77.892H126.555C126.402 78.2244 126.163 78.5071 125.839 78.7401C125.516 78.9702 125.107 79.0852 124.612 79.0852C124.203 79.0852 123.839 78.9957 123.521 78.8168C123.203 78.6349 122.953 78.3622 122.771 77.9986C122.589 77.6321 122.499 77.1705 122.499 76.6136V72.4545H123.504V76.5455C123.504 77.0227 123.638 77.4034 123.905 77.6875C124.175 77.9716 124.518 78.1136 124.936 78.1136C125.186 78.1136 125.44 78.0497 125.699 77.9219C125.96 77.794 126.179 77.598 126.355 77.3338C126.534 77.0696 126.624 76.733 126.624 76.3239ZM133.596 76.3239V72.4545H134.602V79H133.596V77.892H133.528C133.375 78.2244 133.136 78.5071 132.812 78.7401C132.488 78.9702 132.079 79.0852 131.585 79.0852C131.176 79.0852 130.812 78.9957 130.494 78.8168C130.176 78.6349 129.926 78.3622 129.744 77.9986C129.562 77.6321 129.471 77.1705 129.471 76.6136V72.4545H130.477V76.5455C130.477 77.0227 130.61 77.4034 130.877 77.6875C131.147 77.9716 131.491 78.1136 131.909 78.1136C132.159 78.1136 132.413 78.0497 132.672 77.9219C132.933 77.794 133.152 77.598 133.328 77.3338C133.507 77.0696 133.596 76.733 133.596 76.3239ZM136.444 79V72.4545H137.415V73.4432H137.484C137.603 73.1193 137.819 72.8565 138.131 72.6548C138.444 72.4531 138.796 72.3523 139.188 72.3523C139.262 72.3523 139.354 72.3537 139.465 72.3565C139.576 72.3594 139.66 72.3636 139.717 72.3693V73.392C139.683 73.3835 139.604 73.3707 139.482 73.3537C139.363 73.3338 139.237 73.3239 139.103 73.3239C138.785 73.3239 138.501 73.3906 138.251 73.5241C138.004 73.6548 137.808 73.8366 137.663 74.0696C137.521 74.2997 137.45 74.5625 137.45 74.858V79H136.444ZM143.181 79.1364C142.636 79.1364 142.154 78.9986 141.737 78.723C141.319 78.4446 140.992 78.0526 140.756 77.5469C140.521 77.0384 140.403 76.4375 140.403 75.7443C140.403 75.0568 140.521 74.4602 140.756 73.9545C140.992 73.4489 141.32 73.0582 141.741 72.7827C142.161 72.5071 142.647 72.3693 143.198 72.3693C143.624 72.3693 143.961 72.4403 144.208 72.5824C144.458 72.7216 144.648 72.8807 144.779 73.0597C144.913 73.2358 145.016 73.3807 145.09 73.4943H145.175V70.2727H146.181V79H145.21V77.9943H145.09C145.016 78.1136 144.911 78.2642 144.775 78.446C144.638 78.625 144.444 78.7855 144.191 78.9276C143.938 79.0668 143.602 79.1364 143.181 79.1364ZM143.317 78.233C143.721 78.233 144.062 78.1278 144.34 77.9176C144.619 77.7045 144.83 77.4105 144.975 77.0355C145.12 76.6577 145.192 76.2216 145.192 75.7273C145.192 75.2386 145.121 74.8111 144.979 74.4446C144.837 74.0753 144.627 73.7884 144.349 73.5838C144.07 73.3764 143.727 73.2727 143.317 73.2727C142.891 73.2727 142.536 73.3821 142.252 73.6009C141.971 73.8168 141.759 74.1108 141.617 74.483C141.478 74.8523 141.408 75.267 141.408 75.7273C141.408 76.1932 141.479 76.6165 141.621 76.9972C141.766 77.375 141.979 77.6761 142.261 77.9006C142.545 78.1222 142.897 78.233 143.317 78.233ZM154.282 79.1364C153.651 79.1364 153.107 78.9972 152.65 78.7188C152.195 78.4375 151.844 78.0455 151.597 77.5426C151.353 77.0369 151.231 76.4489 151.231 75.7784C151.231 75.108 151.353 74.517 151.597 74.0057C151.844 73.4915 152.188 73.0909 152.629 72.804C153.072 72.5142 153.589 72.3693 154.18 72.3693C154.521 72.3693 154.857 72.4261 155.19 72.5398C155.522 72.6534 155.825 72.8381 156.097 73.0938C156.37 73.3466 156.587 73.6818 156.749 74.0994C156.911 74.517 156.992 75.0312 156.992 75.642V76.0682H151.947V75.1989H155.969C155.969 74.8295 155.896 74.5 155.748 74.2102C155.603 73.9205 155.396 73.6918 155.126 73.5241C154.859 73.3565 154.543 73.2727 154.18 73.2727C153.779 73.2727 153.433 73.3722 153.14 73.571C152.85 73.767 152.627 74.0227 152.471 74.3381C152.315 74.6534 152.237 74.9915 152.237 75.3523V75.9318C152.237 76.4261 152.322 76.8452 152.492 77.1889C152.665 77.5298 152.906 77.7898 153.212 77.9688C153.519 78.1449 153.876 78.233 154.282 78.233C154.546 78.233 154.785 78.196 154.998 78.1222C155.214 78.0455 155.4 77.9318 155.556 77.7812C155.712 77.6278 155.833 77.4375 155.918 77.2102L156.89 77.483C156.788 77.8125 156.616 78.1023 156.374 78.3523C156.133 78.5994 155.835 78.7926 155.479 78.9318C155.124 79.0682 154.725 79.1364 154.282 79.1364ZM158.522 79V72.4545H159.494V73.4773H159.579C159.715 73.1278 159.935 72.8565 160.239 72.6634C160.543 72.4673 160.908 72.3693 161.335 72.3693C161.766 72.3693 162.126 72.4673 162.413 72.6634C162.702 72.8565 162.928 73.1278 163.09 73.4773H163.158C163.326 73.1392 163.577 72.8707 163.913 72.6719C164.248 72.4702 164.65 72.3693 165.119 72.3693C165.704 72.3693 166.183 72.5526 166.555 72.919C166.927 73.2827 167.113 73.8494 167.113 74.6193V79H166.107V74.6193C166.107 74.1364 165.975 73.7912 165.711 73.5838C165.447 73.3764 165.136 73.2727 164.778 73.2727C164.317 73.2727 163.961 73.4119 163.708 73.6903C163.455 73.9659 163.329 74.3153 163.329 74.7386V79H162.306V74.517C162.306 74.1449 162.185 73.8452 161.944 73.6179C161.702 73.3878 161.391 73.2727 161.011 73.2727C160.749 73.2727 160.505 73.3423 160.278 73.4815C160.053 73.6207 159.871 73.8139 159.732 74.0611C159.596 74.3054 159.528 74.5881 159.528 74.9091V79H158.522ZM170.878 79.1534C170.463 79.1534 170.087 79.0753 169.749 78.919C169.411 78.7599 169.142 78.5312 168.943 78.233C168.744 77.9318 168.645 77.5682 168.645 77.142C168.645 76.767 168.719 76.4631 168.866 76.2301C169.014 75.9943 169.212 75.8097 169.459 75.6761C169.706 75.5426 169.979 75.4432 170.277 75.3778C170.578 75.3097 170.881 75.2557 171.185 75.2159C171.582 75.1648 171.905 75.1264 172.152 75.1009C172.402 75.0724 172.584 75.0256 172.697 74.9602C172.814 74.8949 172.872 74.7812 172.872 74.6193V74.5852C172.872 74.1648 172.757 73.8381 172.527 73.6051C172.3 73.3722 171.955 73.2557 171.491 73.2557C171.011 73.2557 170.635 73.3608 170.362 73.571C170.089 73.7812 169.898 74.0057 169.787 74.2443L168.832 73.9034C169.003 73.5057 169.23 73.196 169.514 72.9744C169.801 72.75 170.114 72.5937 170.452 72.5057C170.793 72.4148 171.128 72.3693 171.457 72.3693C171.668 72.3693 171.909 72.3949 172.182 72.446C172.457 72.4943 172.723 72.5952 172.979 72.7486C173.237 72.902 173.452 73.1335 173.622 73.4432C173.793 73.7528 173.878 74.1676 173.878 74.6875V79H172.872V78.1136H172.821C172.753 78.2557 172.639 78.4077 172.48 78.5696C172.321 78.7315 172.109 78.8693 171.845 78.983C171.581 79.0966 171.259 79.1534 170.878 79.1534ZM171.031 78.25C171.429 78.25 171.764 78.1719 172.037 78.0156C172.313 77.8594 172.52 77.6577 172.659 77.4105C172.801 77.1634 172.872 76.9034 172.872 76.6307V75.7102C172.83 75.7614 172.736 75.8082 172.591 75.8509C172.449 75.8906 172.284 75.9261 172.097 75.9574C171.912 75.9858 171.732 76.0114 171.555 76.0341C171.382 76.054 171.241 76.071 171.134 76.0852C170.872 76.1193 170.628 76.1747 170.401 76.2514C170.176 76.3253 169.994 76.4375 169.855 76.5881C169.719 76.7358 169.651 76.9375 169.651 77.1932C169.651 77.5426 169.78 77.8068 170.038 77.9858C170.3 78.1619 170.631 78.25 171.031 78.25ZM175.713 79V72.4545H176.719V79H175.713ZM176.225 71.3636C176.029 71.3636 175.86 71.2969 175.718 71.1634C175.578 71.0298 175.509 70.8693 175.509 70.6818C175.509 70.4943 175.578 70.3338 175.718 70.2003C175.86 70.0668 176.029 70 176.225 70C176.421 70 176.588 70.0668 176.728 70.2003C176.87 70.3338 176.941 70.4943 176.941 70.6818C176.941 70.8693 176.87 71.0298 176.728 71.1634C176.588 71.2969 176.421 71.3636 176.225 71.3636ZM179.567 70.2727V79H178.561V70.2727H179.567Z" fill="black"/>
<defs>
<filter id="filter0_d_20_53" x="-6.10352e-05" y="13.2932" width="270" height="40.7068" filterUnits="userSpaceOnUse" color-interpolation-filters="sRGB">
<feFlood flood-opacity="0" result="BackgroundImageFix"/>
<feColorMatrix in="SourceAlpha" type="matrix" values="0 0 0 0 0 0 0 0 0 0 0 0 0 0 0 0 0 0 127 0" result="hardAlpha"/>
<feMorphology radius="1" operator="dilate" in="SourceAlpha" result="effect1_dropShadow_20_53"/>
<feOffset dx="4" dy="4"/>
<feGaussianBlur stdDeviation="2"/>
<feComposite in2="hardAlpha" operator="out"/>
<feColorMatrix type="matrix" values="0 0 0 0 0 0 0 0 0 0 0 0 0 0 0 0 0 0 0.25 0"/>
<feBlend mode="normal" in2="BackgroundImageFix" result="effect1_dropShadow_20_53"/>
<feBlend mode="normal" in="SourceGraphic" in2="effect1_dropShadow_20_53" result="shape"/>
</filter>
<filter id="filter1_d_20_53" x="46" y="61" width="181" height="35" filterUnits="userSpaceOnUse" color-interpolation-filters="sRGB">
<feFlood flood-opacity="0" result="BackgroundImageFix"/>
<feColorMatrix in="SourceAlpha" type="matrix" values="0 0 0 0 0 0 0 0 0 0 0 0 0 0 0 0 0 0 127 0" result="hardAlpha"/>
<feOffset dy="4"/>
<feGaussianBlur stdDeviation="2"/>
<feComposite in2="hardAlpha" operator="out"/>
<feColorMatrix type="matrix" values="0 0 0 0 0 0 0 0 0 0 0 0 0 0 0 0 0 0 0.25 0"/>
<feBlend mode="normal" in2="BackgroundImageFix" result="effect1_dropShadow_20_53"/>
<feBlend mode="normal" in="SourceGraphic" in2="effect1_dropShadow_20_53" result="shape"/>
</filter>
</defs>
</svg>
