<svg width="256" height="43" viewBox="0 0 256 43" fill="none" xmlns="http://www.w3.org/2000/svg">
<rect x="0.499939" y="16.7932" width="255" height="25.7068" rx="4.5" fill="white" stroke="black"/>
<path d="M8.05682 34V25.2727H11.0057C11.6903 25.2727 12.25 25.3963 12.6847 25.6435C13.1222 25.8878 13.446 26.2188 13.6562 26.6364C13.8665 27.054 13.9716 27.5199 13.9716 28.0341C13.9716 28.5483 13.8665 29.0156 13.6562 29.4361C13.4489 29.8565 13.1278 30.1918 12.6932 30.4418C12.2585 30.6889 11.7017 30.8125 11.0227 30.8125H8.90909V29.875H10.9886C11.4574 29.875 11.8338 29.794 12.1179 29.6321C12.402 29.4702 12.608 29.2514 12.7358 28.9759C12.8665 28.6974 12.9318 28.3835 12.9318 28.0341C12.9318 27.6847 12.8665 27.3722 12.7358 27.0966C12.608 26.821 12.4006 26.6051 12.1136 26.4489C11.8267 26.2898 11.446 26.2102 10.9716 26.2102H9.11364V34H8.05682ZM16.5433 25.2727V34H15.5376V25.2727H16.5433ZM20.3114 34.1534C19.8967 34.1534 19.5202 34.0753 19.1822 33.919C18.8441 33.7599 18.5756 33.5312 18.3768 33.233C18.1779 32.9318 18.0785 32.5682 18.0785 32.142C18.0785 31.767 18.1523 31.4631 18.3001 31.2301C18.4478 30.9943 18.6452 30.8097 18.8924 30.6761C19.1396 30.5426 19.4123 30.4432 19.7106 30.3778C20.0117 30.3097 20.3143 30.2557 20.6183 30.2159C21.016 30.1648 21.3384 30.1264 21.5856 30.1009C21.8356 30.0724 22.0174 30.0256 22.131 29.9602C22.2475 29.8949 22.3058 29.7812 22.3058 29.6193V29.5852C22.3058 29.1648 22.1907 28.8381 21.9606 28.6051C21.7333 28.3722 21.3881 28.2557 20.9251 28.2557C20.445 28.2557 20.0685 28.3608 19.7958 28.571C19.5231 28.7812 19.3313 29.0057 19.2205 29.2443L18.266 28.9034C18.4364 28.5057 18.6637 28.196 18.9478 27.9744C19.2347 27.75 19.5472 27.5937 19.8853 27.5057C20.2262 27.4148 20.5614 27.3693 20.891 27.3693C21.1012 27.3693 21.3427 27.3949 21.6154 27.446C21.891 27.4943 22.1566 27.5952 22.4123 27.7486C22.6708 27.902 22.8853 28.1335 23.0558 28.4432C23.2262 28.7528 23.3114 29.1676 23.3114 29.6875V34H22.3058V33.1136H22.2546C22.1864 33.2557 22.0728 33.4077 21.9137 33.5696C21.7546 33.7315 21.543 33.8693 21.2788 33.983C21.0146 34.0966 20.6921 34.1534 20.3114 34.1534ZM20.4648 33.25C20.8626 33.25 21.1978 33.1719 21.4705 33.0156C21.7461 32.8594 21.9535 32.6577 22.0927 32.4105C22.2347 32.1634 22.3058 31.9034 22.3058 31.6307V30.7102C22.2631 30.7614 22.1694 30.8082 22.0245 30.8509C21.8825 30.8906 21.7177 30.9261 21.5302 30.9574C21.3455 30.9858 21.1651 31.0114 20.989 31.0341C20.8157 31.054 20.6751 31.071 20.5671 31.0852C20.3058 31.1193 20.0614 31.1747 19.8342 31.2514C19.6097 31.3253 19.4279 31.4375 19.2887 31.5881C19.1523 31.7358 19.0842 31.9375 19.0842 32.1932C19.0842 32.5426 19.2134 32.8068 19.4719 32.9858C19.7333 33.1619 20.0643 33.25 20.4648 33.25ZM27.8061 34.1364C27.1925 34.1364 26.6641 33.9915 26.2209 33.7017C25.7777 33.4119 25.4368 33.0128 25.1982 32.5043C24.9595 31.9957 24.8402 31.4148 24.8402 30.7614C24.8402 30.0966 24.9624 29.5099 25.2067 29.0014C25.4538 28.4901 25.7976 28.0909 26.2379 27.804C26.6811 27.5142 27.1982 27.3693 27.7891 27.3693C28.2493 27.3693 28.6641 27.4545 29.0334 27.625C29.4027 27.7955 29.7053 28.0341 29.9411 28.3409C30.1768 28.6477 30.3232 29.0057 30.38 29.4148H29.3743C29.2976 29.1165 29.1271 28.8523 28.8629 28.6222C28.6016 28.3892 28.2493 28.2727 27.8061 28.2727C27.4141 28.2727 27.0703 28.375 26.7749 28.5795C26.4822 28.7812 26.2536 29.0668 26.0888 29.4361C25.9268 29.8026 25.8459 30.233 25.8459 30.7273C25.8459 31.233 25.9254 31.6733 26.0845 32.0483C26.2464 32.4233 26.4737 32.7145 26.7663 32.9219C27.0618 33.1293 27.4084 33.233 27.8061 33.233C28.0675 33.233 28.3047 33.1875 28.5178 33.0966C28.7308 33.0057 28.9112 32.875 29.0589 32.7045C29.2067 32.5341 29.3118 32.3295 29.3743 32.0909H30.38C30.3232 32.4773 30.1825 32.8253 29.9581 33.1349C29.7365 33.4418 29.4425 33.6861 29.076 33.8679C28.7124 34.0469 28.2891 34.1364 27.8061 34.1364ZM34.5945 34.1364C33.9638 34.1364 33.4197 33.9972 32.9624 33.7188C32.5078 33.4375 32.157 33.0455 31.9098 32.5426C31.6655 32.0369 31.5433 31.4489 31.5433 30.7784C31.5433 30.108 31.6655 29.517 31.9098 29.0057C32.157 28.4915 32.5007 28.0909 32.9411 27.804C33.3842 27.5142 33.9013 27.3693 34.4922 27.3693C34.8331 27.3693 35.1697 27.4261 35.5021 27.5398C35.8345 27.6534 36.1371 27.8381 36.4098 28.0938C36.6825 28.3466 36.8999 28.6818 37.0618 29.0994C37.2237 29.517 37.3047 30.0312 37.3047 30.642V31.0682H32.2592V30.1989H36.282C36.282 29.8295 36.2081 29.5 36.0604 29.2102C35.9155 28.9205 35.7081 28.6918 35.4382 28.5241C35.1712 28.3565 34.8558 28.2727 34.4922 28.2727C34.0916 28.2727 33.745 28.3722 33.4524 28.571C33.1626 28.767 32.9396 29.0227 32.7834 29.3381C32.6271 29.6534 32.549 29.9915 32.549 30.3523V30.9318C32.549 31.4261 32.6342 31.8452 32.8047 32.1889C32.978 32.5298 33.218 32.7898 33.5249 32.9688C33.8317 33.1449 34.1882 33.233 34.5945 33.233C34.8587 33.233 35.0973 33.196 35.3104 33.1222C35.5263 33.0455 35.7124 32.9318 35.8686 32.7812C36.0249 32.6278 36.1456 32.4375 36.2308 32.2102L37.2024 32.483C37.1001 32.8125 36.9283 33.1023 36.6868 33.3523C36.4453 33.5994 36.147 33.7926 35.7919 33.9318C35.4368 34.0682 35.0376 34.1364 34.5945 34.1364ZM43.2152 30.0625V34H42.2095V25.2727H43.2152V28.4773H43.3004C43.4538 28.1392 43.6839 27.8707 43.9908 27.6719C44.3004 27.4702 44.7124 27.3693 45.2266 27.3693C45.6726 27.3693 46.0632 27.4588 46.3984 27.6378C46.7337 27.8139 46.9936 28.0852 47.1783 28.4517C47.3658 28.8153 47.4595 29.2784 47.4595 29.8409V34H46.4538V29.9091C46.4538 29.3892 46.3189 28.9872 46.049 28.7031C45.782 28.4162 45.4112 28.2727 44.9368 28.2727C44.6072 28.2727 44.3118 28.3423 44.0504 28.4815C43.7919 28.6207 43.5874 28.8239 43.4368 29.0909C43.2891 29.358 43.2152 29.6818 43.2152 30.0625ZM51.9585 34.1364C51.3675 34.1364 50.8491 33.9957 50.4031 33.7145C49.9599 33.4332 49.6133 33.0398 49.3633 32.5341C49.1161 32.0284 48.9925 31.4375 48.9925 30.7614C48.9925 30.0795 49.1161 29.4844 49.3633 28.9759C49.6133 28.4673 49.9599 28.0724 50.4031 27.7912C50.8491 27.5099 51.3675 27.3693 51.9585 27.3693C52.5494 27.3693 53.0664 27.5099 53.5096 27.7912C53.9556 28.0724 54.3022 28.4673 54.5494 28.9759C54.7994 29.4844 54.9244 30.0795 54.9244 30.7614C54.9244 31.4375 54.7994 32.0284 54.5494 32.5341C54.3022 33.0398 53.9556 33.4332 53.5096 33.7145C53.0664 33.9957 52.5494 34.1364 51.9585 34.1364ZM51.9585 33.233C52.4073 33.233 52.7766 33.1179 53.0664 32.8878C53.3562 32.6577 53.5707 32.3551 53.7099 31.9801C53.8491 31.6051 53.9187 31.1989 53.9187 30.7614C53.9187 30.3239 53.8491 29.9162 53.7099 29.5384C53.5707 29.1605 53.3562 28.8551 53.0664 28.6222C52.7766 28.3892 52.4073 28.2727 51.9585 28.2727C51.5096 28.2727 51.1403 28.3892 50.8505 28.6222C50.5607 28.8551 50.3462 29.1605 50.207 29.5384C50.0678 29.9162 49.9982 30.3239 49.9982 30.7614C49.9982 31.1989 50.0678 31.6051 50.207 31.9801C50.3462 32.3551 50.5607 32.6577 50.8505 32.8878C51.1403 33.1179 51.5096 33.233 51.9585 33.233ZM57.4652 25.2727V34H56.4595V25.2727H57.4652ZM61.7788 34.1364C61.2333 34.1364 60.7518 33.9986 60.3342 33.723C59.9165 33.4446 59.5898 33.0526 59.354 32.5469C59.1183 32.0384 59.0004 31.4375 59.0004 30.7443C59.0004 30.0568 59.1183 29.4602 59.354 28.9545C59.5898 28.4489 59.918 28.0582 60.3384 27.7827C60.7589 27.5071 61.2447 27.3693 61.7958 27.3693C62.2219 27.3693 62.5586 27.4403 62.8058 27.5824C63.0558 27.7216 63.2461 27.8807 63.3768 28.0597C63.5103 28.2358 63.614 28.3807 63.6879 28.4943H63.7731V25.2727H64.7788V34H63.8072V32.9943H63.6879C63.614 33.1136 63.5089 33.2642 63.3725 33.446C63.2362 33.625 63.0415 33.7855 62.7887 33.9276C62.5359 34.0668 62.1992 34.1364 61.7788 34.1364ZM61.9151 33.233C62.3185 33.233 62.6594 33.1278 62.9379 32.9176C63.2163 32.7045 63.4279 32.4105 63.5728 32.0355C63.7177 31.6577 63.7901 31.2216 63.7901 30.7273C63.7901 30.2386 63.7191 29.8111 63.5771 29.4446C63.435 29.0753 63.2248 28.7884 62.9464 28.5838C62.668 28.3764 62.3242 28.2727 61.9151 28.2727C61.489 28.2727 61.1339 28.3821 60.8498 28.6009C60.5685 28.8168 60.3569 29.1108 60.2148 29.483C60.0756 29.8523 60.006 30.267 60.006 30.7273C60.006 31.1932 60.0771 31.6165 60.2191 31.9972C60.364 32.375 60.5771 32.6761 60.8583 32.9006C61.1424 33.1222 61.4947 33.233 61.9151 33.233ZM69.5046 34.1364C68.8739 34.1364 68.3299 33.9972 67.8725 33.7188C67.418 33.4375 67.0671 33.0455 66.82 32.5426C66.5756 32.0369 66.4535 31.4489 66.4535 30.7784C66.4535 30.108 66.5756 29.517 66.82 29.0057C67.0671 28.4915 67.4109 28.0909 67.8512 27.804C68.2944 27.5142 68.8114 27.3693 69.4023 27.3693C69.7433 27.3693 70.0799 27.4261 70.4123 27.5398C70.7447 27.6534 71.0472 27.8381 71.32 28.0938C71.5927 28.3466 71.81 28.6818 71.9719 29.0994C72.1339 29.517 72.2148 30.0312 72.2148 30.642V31.0682H67.1694V30.1989H71.1921C71.1921 29.8295 71.1183 29.5 70.9705 29.2102C70.8256 28.9205 70.6183 28.6918 70.3484 28.5241C70.0813 28.3565 69.766 28.2727 69.4023 28.2727C69.0018 28.2727 68.6552 28.3722 68.3626 28.571C68.0728 28.767 67.8498 29.0227 67.6935 29.3381C67.5373 29.6534 67.4592 29.9915 67.4592 30.3523V30.9318C67.4592 31.4261 67.5444 31.8452 67.7148 32.1889C67.8881 32.5298 68.1282 32.7898 68.435 32.9688C68.7418 33.1449 69.0984 33.233 69.5046 33.233C69.7688 33.233 70.0075 33.196 70.2205 33.1222C70.4364 33.0455 70.6225 32.9318 70.7788 32.7812C70.935 32.6278 71.0558 32.4375 71.141 32.2102L72.1126 32.483C72.0103 32.8125 71.8384 33.1023 71.5969 33.3523C71.3555 33.5994 71.0572 33.7926 70.7021 33.9318C70.3469 34.0682 69.9478 34.1364 69.5046 34.1364ZM73.7447 34V27.4545H74.7163V28.4432H74.7844C74.9038 28.1193 75.1197 27.8565 75.4322 27.6548C75.7447 27.4531 76.0969 27.3523 76.489 27.3523C76.5629 27.3523 76.6552 27.3537 76.766 27.3565C76.8768 27.3594 76.9606 27.3636 77.0174 27.3693V28.392C76.9833 28.3835 76.9052 28.3707 76.783 28.3537C76.6637 28.3338 76.5373 28.3239 76.4038 28.3239C76.0856 28.3239 75.8015 28.3906 75.5515 28.5241C75.3043 28.6548 75.1083 28.8366 74.9634 29.0696C74.8214 29.2997 74.7504 29.5625 74.7504 29.858V34H73.7447ZM84.4311 27.4545V28.3068H81.0391V27.4545H84.4311ZM82.0277 25.8864H83.0334V32.125C83.0334 32.4091 83.0746 32.6222 83.157 32.7642C83.2422 32.9034 83.3501 32.9972 83.4808 33.0455C83.6143 33.0909 83.755 33.1136 83.9027 33.1136C84.0135 33.1136 84.1044 33.108 84.1754 33.0966C84.2464 33.0824 84.3033 33.071 84.3459 33.0625L84.5504 33.9659C84.4822 33.9915 84.3871 34.017 84.2649 34.0426C84.1428 34.071 83.9879 34.0852 83.8004 34.0852C83.5163 34.0852 83.2379 34.0241 82.9652 33.902C82.6953 33.7798 82.4709 33.5938 82.2919 33.3438C82.1158 33.0938 82.0277 32.7784 82.0277 32.3977V25.8864ZM88.6179 34.1364C87.9872 34.1364 87.4432 33.9972 86.9858 33.7188C86.5312 33.4375 86.1804 33.0455 85.9332 32.5426C85.6889 32.0369 85.5668 31.4489 85.5668 30.7784C85.5668 30.108 85.6889 29.517 85.9332 29.0057C86.1804 28.4915 86.5241 28.0909 86.9645 27.804C87.4077 27.5142 87.9247 27.3693 88.5156 27.3693C88.8565 27.3693 89.1932 27.4261 89.5256 27.5398C89.858 27.6534 90.1605 27.8381 90.4332 28.0938C90.706 28.3466 90.9233 28.6818 91.0852 29.0994C91.2472 29.517 91.3281 30.0312 91.3281 30.642V31.0682H86.2827V30.1989H90.3054C90.3054 29.8295 90.2315 29.5 90.0838 29.2102C89.9389 28.9205 89.7315 28.6918 89.4616 28.5241C89.1946 28.3565 88.8793 28.2727 88.5156 28.2727C88.1151 28.2727 87.7685 28.3722 87.4759 28.571C87.1861 28.767 86.9631 29.0227 86.8068 29.3381C86.6506 29.6534 86.5724 29.9915 86.5724 30.3523V30.9318C86.5724 31.4261 86.6577 31.8452 86.8281 32.1889C87.0014 32.5298 87.2415 32.7898 87.5483 32.9688C87.8551 33.1449 88.2116 33.233 88.6179 33.233C88.8821 33.233 89.1207 33.196 89.3338 33.1222C89.5497 33.0455 89.7358 32.9318 89.892 32.7812C90.0483 32.6278 90.169 32.4375 90.2543 32.2102L91.2259 32.483C91.1236 32.8125 90.9517 33.1023 90.7102 33.3523C90.4688 33.5994 90.1705 33.7926 89.8153 33.9318C89.4602 34.0682 89.0611 34.1364 88.6179 34.1364ZM93.4322 27.4545L95.0004 30.1307L96.5685 27.4545H97.7276L95.614 30.7273L97.7276 34H96.5685L95.0004 31.4602L93.4322 34H92.2731L94.3526 30.7273L92.2731 27.4545H93.4322ZM102.009 27.4545V28.3068H98.6172V27.4545H102.009ZM99.6058 25.8864H100.612V32.125C100.612 32.4091 100.653 32.6222 100.735 32.7642C100.82 32.9034 100.928 32.9972 101.059 33.0455C101.192 33.0909 101.333 33.1136 101.481 33.1136C101.592 33.1136 101.683 33.108 101.754 33.0966C101.825 33.0824 101.881 33.071 101.924 33.0625L102.129 33.9659C102.06 33.9915 101.965 34.017 101.843 34.0426C101.721 34.071 101.566 34.0852 101.379 34.0852C101.094 34.0852 100.816 34.0241 100.543 33.902C100.273 33.7798 100.049 33.5938 99.87 33.3438C99.6939 33.0938 99.6058 32.7784 99.6058 32.3977V25.8864Z" fill="black" fill-opacity="0.5"/>
<path d="M4.05682 12V3.27273H5.11364V11.0625H9.17045V12H4.05682ZM12.5966 12.1534C12.1818 12.1534 11.8054 12.0753 11.4673 11.919C11.1293 11.7599 10.8608 11.5312 10.6619 11.233C10.4631 10.9318 10.3636 10.5682 10.3636 10.142C10.3636 9.76705 10.4375 9.46307 10.5852 9.23011C10.733 8.99432 10.9304 8.80966 11.1776 8.67614C11.4247 8.54261 11.6974 8.44318 11.9957 8.37784C12.2969 8.30966 12.5994 8.25568 12.9034 8.21591C13.3011 8.16477 13.6236 8.12642 13.8707 8.10085C14.1207 8.07244 14.3026 8.02557 14.4162 7.96023C14.5327 7.89489 14.5909 7.78125 14.5909 7.61932V7.58523C14.5909 7.16477 14.4759 6.83807 14.2457 6.60511C14.0185 6.37216 13.6733 6.25568 13.2102 6.25568C12.7301 6.25568 12.3537 6.3608 12.081 6.57102C11.8082 6.78125 11.6165 7.00568 11.5057 7.24432L10.5511 6.90341C10.7216 6.50568 10.9489 6.19602 11.233 5.97443C11.5199 5.75 11.8324 5.59375 12.1705 5.50568C12.5114 5.41477 12.8466 5.36932 13.1761 5.36932C13.3864 5.36932 13.6278 5.39489 13.9006 5.44602C14.1761 5.49432 14.4418 5.59517 14.6974 5.74858C14.956 5.90199 15.1705 6.13352 15.3409 6.44318C15.5114 6.75284 15.5966 7.16761 15.5966 7.6875V12H14.5909V11.1136H14.5398C14.4716 11.2557 14.358 11.4077 14.1989 11.5696C14.0398 11.7315 13.8281 11.8693 13.5639 11.983C13.2997 12.0966 12.9773 12.1534 12.5966 12.1534ZM12.75 11.25C13.1477 11.25 13.483 11.1719 13.7557 11.0156C14.0313 10.8594 14.2386 10.6577 14.3778 10.4105C14.5199 10.1634 14.5909 9.90341 14.5909 9.63068V8.71023C14.5483 8.76136 14.4545 8.80824 14.3097 8.85085C14.1676 8.89062 14.0028 8.92614 13.8153 8.95739C13.6307 8.9858 13.4503 9.01136 13.2741 9.03409C13.1009 9.05398 12.9602 9.07102 12.8523 9.08523C12.5909 9.11932 12.3466 9.17472 12.1193 9.25142C11.8949 9.32528 11.7131 9.4375 11.5739 9.58807C11.4375 9.7358 11.3693 9.9375 11.3693 10.1932C11.3693 10.5426 11.4986 10.8068 11.7571 10.9858C12.0185 11.1619 12.3494 11.25 12.75 11.25ZM17.5685 12V3.27273H18.5742V6.49432H18.6594C18.7333 6.38068 18.8356 6.2358 18.9663 6.05966C19.0998 5.88068 19.2901 5.72159 19.5373 5.58239C19.7873 5.44034 20.1254 5.36932 20.5515 5.36932C21.1026 5.36932 21.5884 5.5071 22.0089 5.78267C22.4293 6.05824 22.7575 6.44886 22.9933 6.95455C23.229 7.46023 23.3469 8.05682 23.3469 8.74432C23.3469 9.4375 23.229 10.0384 22.9933 10.5469C22.7575 11.0526 22.4308 11.4446 22.0131 11.723C21.5955 11.9986 21.114 12.1364 20.5685 12.1364C20.1481 12.1364 19.8114 12.0668 19.5586 11.9276C19.3058 11.7855 19.1112 11.625 18.9748 11.446C18.8384 11.2642 18.7333 11.1136 18.6594 10.9943H18.5401V12H17.5685ZM18.5572 8.72727C18.5572 9.22159 18.6296 9.65767 18.7745 10.0355C18.9194 10.4105 19.131 10.7045 19.4094 10.9176C19.6879 11.1278 20.0288 11.233 20.4322 11.233C20.8526 11.233 21.2035 11.1222 21.4847 10.9006C21.7688 10.6761 21.9819 10.375 22.1239 9.99716C22.2688 9.61648 22.3413 9.19318 22.3413 8.72727C22.3413 8.26705 22.2702 7.85227 22.1282 7.48295C21.989 7.1108 21.7773 6.81676 21.4933 6.60085C21.212 6.3821 20.8583 6.27273 20.4322 6.27273C20.0231 6.27273 19.6793 6.37642 19.4009 6.58381C19.1225 6.78835 18.9123 7.07528 18.7702 7.4446C18.6282 7.81108 18.5572 8.23864 18.5572 8.72727ZM27.6296 12.1364C26.9989 12.1364 26.4549 11.9972 25.9975 11.7188C25.543 11.4375 25.1921 11.0455 24.945 10.5426C24.7006 10.0369 24.5785 9.44886 24.5785 8.77841C24.5785 8.10795 24.7006 7.51705 24.945 7.00568C25.1921 6.49148 25.5359 6.09091 25.9762 5.80398C26.4194 5.5142 26.9364 5.36932 27.5273 5.36932C27.8683 5.36932 28.2049 5.42614 28.5373 5.53977C28.8697 5.65341 29.1722 5.83807 29.445 6.09375C29.7177 6.34659 29.935 6.68182 30.0969 7.09943C30.2589 7.51705 30.3398 8.03125 30.3398 8.64205V9.06818H25.2944V8.19886H29.3171C29.3171 7.82955 29.2433 7.5 29.0955 7.21023C28.9506 6.92045 28.7433 6.69176 28.4734 6.52415C28.2063 6.35653 27.891 6.27273 27.5273 6.27273C27.1268 6.27273 26.7802 6.37216 26.4876 6.57102C26.1978 6.76705 25.9748 7.02273 25.8185 7.33807C25.6623 7.65341 25.5842 7.99148 25.5842 8.35227V8.93182C25.5842 9.42614 25.6694 9.84517 25.8398 10.1889C26.0131 10.5298 26.2532 10.7898 26.56 10.9688C26.8668 11.1449 27.2234 11.233 27.6296 11.233C27.8938 11.233 28.1325 11.196 28.3455 11.1222C28.5614 11.0455 28.7475 10.9318 28.9038 10.7812C29.06 10.6278 29.1808 10.4375 29.266 10.2102L30.2376 10.483C30.1353 10.8125 29.9634 11.1023 29.7219 11.3523C29.4805 11.5994 29.1822 11.7926 28.8271 11.9318C28.4719 12.0682 28.0728 12.1364 27.6296 12.1364ZM32.8754 3.27273V12H31.8697V3.27273H32.8754Z" fill="black"/>
</svg>
