<svg width="308" height="157" viewBox="0 0 308 157" fill="none" xmlns="http://www.w3.org/2000/svg">
<line x1="50" y1="87.5" x2="36" y2="87.5" stroke="black"/>
<path d="M33.8536 27.6464C33.6583 27.4512 33.3417 27.4512 33.1464 27.6464L29.9645 30.8284C29.7692 31.0237 29.7692 31.3403 29.9645 31.5355C30.1597 31.7308 30.4763 31.7308 30.6716 31.5355L33.5 28.7071L36.3284 31.5355C36.5237 31.7308 36.8403 31.7308 37.0355 31.5355C37.2308 31.3403 37.2308 31.0237 37.0355 30.8284L33.8536 27.6464ZM34 87L34 28L33 28L33 87L34 87Z" fill="#FF1313"/>
<line x1="36" y1="27.5" x2="50" y2="27.5" stroke="black"/>
<path d="M0.903409 62V61.233L3.78409 58.0795C4.12216 57.7102 4.40057 57.3892 4.61932 57.1165C4.83807 56.8409 5 56.5824 5.10511 56.3409C5.21307 56.0966 5.26705 55.8409 5.26705 55.5739C5.26705 55.267 5.19318 55.0014 5.04545 54.777C4.90057 54.5526 4.7017 54.3793 4.44886 54.2571C4.19602 54.1349 3.91193 54.0739 3.59659 54.0739C3.26136 54.0739 2.96875 54.1435 2.71875 54.2827C2.47159 54.419 2.27983 54.6108 2.14347 54.858C2.00994 55.1051 1.94318 55.3949 1.94318 55.7273H0.9375C0.9375 55.2159 1.0554 54.767 1.29119 54.3807C1.52699 53.9943 1.84801 53.6932 2.25426 53.4773C2.66335 53.2614 3.12216 53.1534 3.63068 53.1534C4.14205 53.1534 4.59517 53.2614 4.99006 53.4773C5.38494 53.6932 5.6946 53.9844 5.91903 54.3509C6.14347 54.7173 6.25568 55.125 6.25568 55.5739C6.25568 55.8949 6.19744 56.2088 6.08097 56.5156C5.96733 56.8196 5.76847 57.1591 5.48438 57.5341C5.20312 57.9062 4.8125 58.3608 4.3125 58.8977L2.35227 60.9943V61.0625H6.40909V62H0.903409ZM7.77699 60.2102V59.3409L11.6122 53.2727H12.2429V54.6193H11.8168L8.91903 59.2045V59.2727H14.0838V60.2102H7.77699ZM11.8849 62V59.946V59.5412V53.2727H12.8906V62H11.8849ZM15.6978 64.4545V55.4545H16.6694V56.4943H16.7887C16.8626 56.3807 16.9648 56.2358 17.0955 56.0597C17.229 55.8807 17.4194 55.7216 17.6665 55.5824C17.9165 55.4403 18.2546 55.3693 18.6808 55.3693C19.2319 55.3693 19.7177 55.5071 20.1381 55.7827C20.5586 56.0582 20.8867 56.4489 21.1225 56.9545C21.3583 57.4602 21.4762 58.0568 21.4762 58.7443C21.4762 59.4375 21.3583 60.0384 21.1225 60.5469C20.8867 61.0526 20.56 61.4446 20.1424 61.723C19.7248 61.9986 19.2433 62.1364 18.6978 62.1364C18.2773 62.1364 17.9407 62.0668 17.6879 61.9276C17.435 61.7855 17.2404 61.625 17.104 61.446C16.9677 61.2642 16.8626 61.1136 16.7887 60.9943H16.7035V64.4545H15.6978ZM16.6864 58.7273C16.6864 59.2216 16.7589 59.6577 16.9038 60.0355C17.0487 60.4105 17.2603 60.7045 17.5387 60.9176C17.8171 61.1278 18.158 61.233 18.5614 61.233C18.9819 61.233 19.3327 61.1222 19.614 60.9006C19.8981 60.6761 20.1112 60.375 20.2532 59.9972C20.3981 59.6165 20.4705 59.1932 20.4705 58.7273C20.4705 58.267 20.3995 57.8523 20.2575 57.483C20.1183 57.1108 19.9066 56.8168 19.6225 56.6009C19.3413 56.3821 18.9876 56.2727 18.5614 56.2727C18.1523 56.2727 17.8086 56.3764 17.5302 56.5838C17.2518 56.7884 17.0415 57.0753 16.8995 57.4446C16.7575 57.8111 16.6864 58.2386 16.6864 58.7273ZM23.4908 55.4545L25.0589 58.1307L26.6271 55.4545H27.7862L25.6726 58.7273L27.7862 62H26.6271L25.0589 59.4602L23.4908 62H22.3317L24.4112 58.7273L22.3317 55.4545H23.4908Z" fill="#F41D1D"/>
<rect x="52.4999" y="16.7932" width="255" height="25.7068" rx="4.5" fill="white" stroke="black"/>
<path d="M60.0568 34V25.2727H63.0057C63.6903 25.2727 64.25 25.3963 64.6847 25.6435C65.1222 25.8878 65.446 26.2188 65.6562 26.6364C65.8665 27.054 65.9716 27.5199 65.9716 28.0341C65.9716 28.5483 65.8665 29.0156 65.6562 29.4361C65.4489 29.8565 65.1278 30.1918 64.6932 30.4418C64.2585 30.6889 63.7017 30.8125 63.0227 30.8125H60.9091V29.875H62.9886C63.4574 29.875 63.8338 29.794 64.1179 29.6321C64.402 29.4702 64.608 29.2514 64.7358 28.9759C64.8665 28.6974 64.9318 28.3835 64.9318 28.0341C64.9318 27.6847 64.8665 27.3722 64.7358 27.0966C64.608 26.821 64.4006 26.6051 64.1136 26.4489C63.8267 26.2898 63.446 26.2102 62.9716 26.2102H61.1136V34H60.0568ZM68.5433 25.2727V34H67.5376V25.2727H68.5433ZM72.3114 34.1534C71.8967 34.1534 71.5202 34.0753 71.1822 33.919C70.8441 33.7599 70.5756 33.5312 70.3768 33.233C70.1779 32.9318 70.0785 32.5682 70.0785 32.142C70.0785 31.767 70.1523 31.4631 70.3001 31.2301C70.4478 30.9943 70.6452 30.8097 70.8924 30.6761C71.1396 30.5426 71.4123 30.4432 71.7106 30.3778C72.0117 30.3097 72.3143 30.2557 72.6183 30.2159C73.016 30.1648 73.3384 30.1264 73.5856 30.1009C73.8356 30.0724 74.0174 30.0256 74.131 29.9602C74.2475 29.8949 74.3058 29.7812 74.3058 29.6193V29.5852C74.3058 29.1648 74.1907 28.8381 73.9606 28.6051C73.7333 28.3722 73.3881 28.2557 72.9251 28.2557C72.445 28.2557 72.0685 28.3608 71.7958 28.571C71.5231 28.7812 71.3313 29.0057 71.2205 29.2443L70.266 28.9034C70.4364 28.5057 70.6637 28.196 70.9478 27.9744C71.2347 27.75 71.5472 27.5937 71.8853 27.5057C72.2262 27.4148 72.5614 27.3693 72.891 27.3693C73.1012 27.3693 73.3427 27.3949 73.6154 27.446C73.891 27.4943 74.1566 27.5952 74.4123 27.7486C74.6708 27.902 74.8853 28.1335 75.0558 28.4432C75.2262 28.7528 75.3114 29.1676 75.3114 29.6875V34H74.3058V33.1136H74.2546C74.1864 33.2557 74.0728 33.4077 73.9137 33.5696C73.7546 33.7315 73.543 33.8693 73.2788 33.983C73.0146 34.0966 72.6921 34.1534 72.3114 34.1534ZM72.4648 33.25C72.8626 33.25 73.1978 33.1719 73.4705 33.0156C73.7461 32.8594 73.9535 32.6577 74.0927 32.4105C74.2347 32.1634 74.3058 31.9034 74.3058 31.6307V30.7102C74.2631 30.7614 74.1694 30.8082 74.0245 30.8509C73.8825 30.8906 73.7177 30.9261 73.5302 30.9574C73.3455 30.9858 73.1651 31.0114 72.989 31.0341C72.8157 31.054 72.6751 31.071 72.5671 31.0852C72.3058 31.1193 72.0614 31.1747 71.8342 31.2514C71.6097 31.3253 71.4279 31.4375 71.2887 31.5881C71.1523 31.7358 71.0842 31.9375 71.0842 32.1932C71.0842 32.5426 71.2134 32.8068 71.4719 32.9858C71.7333 33.1619 72.0643 33.25 72.4648 33.25ZM79.8061 34.1364C79.1925 34.1364 78.6641 33.9915 78.2209 33.7017C77.7777 33.4119 77.4368 33.0128 77.1982 32.5043C76.9595 31.9957 76.8402 31.4148 76.8402 30.7614C76.8402 30.0966 76.9624 29.5099 77.2067 29.0014C77.4538 28.4901 77.7976 28.0909 78.2379 27.804C78.6811 27.5142 79.1982 27.3693 79.7891 27.3693C80.2493 27.3693 80.6641 27.4545 81.0334 27.625C81.4027 27.7955 81.7053 28.0341 81.9411 28.3409C82.1768 28.6477 82.3232 29.0057 82.38 29.4148H81.3743C81.2976 29.1165 81.1271 28.8523 80.8629 28.6222C80.6016 28.3892 80.2493 28.2727 79.8061 28.2727C79.4141 28.2727 79.0703 28.375 78.7749 28.5795C78.4822 28.7812 78.2536 29.0668 78.0888 29.4361C77.9268 29.8026 77.8459 30.233 77.8459 30.7273C77.8459 31.233 77.9254 31.6733 78.0845 32.0483C78.2464 32.4233 78.4737 32.7145 78.7663 32.9219C79.0618 33.1293 79.4084 33.233 79.8061 33.233C80.0675 33.233 80.3047 33.1875 80.5178 33.0966C80.7308 33.0057 80.9112 32.875 81.0589 32.7045C81.2067 32.5341 81.3118 32.3295 81.3743 32.0909H82.38C82.3232 32.4773 82.1825 32.8253 81.9581 33.1349C81.7365 33.4418 81.4425 33.6861 81.076 33.8679C80.7124 34.0469 80.2891 34.1364 79.8061 34.1364ZM86.5945 34.1364C85.9638 34.1364 85.4197 33.9972 84.9624 33.7188C84.5078 33.4375 84.157 33.0455 83.9098 32.5426C83.6655 32.0369 83.5433 31.4489 83.5433 30.7784C83.5433 30.108 83.6655 29.517 83.9098 29.0057C84.157 28.4915 84.5007 28.0909 84.9411 27.804C85.3842 27.5142 85.9013 27.3693 86.4922 27.3693C86.8331 27.3693 87.1697 27.4261 87.5021 27.5398C87.8345 27.6534 88.1371 27.8381 88.4098 28.0938C88.6825 28.3466 88.8999 28.6818 89.0618 29.0994C89.2237 29.517 89.3047 30.0312 89.3047 30.642V31.0682H84.2592V30.1989H88.282C88.282 29.8295 88.2081 29.5 88.0604 29.2102C87.9155 28.9205 87.7081 28.6918 87.4382 28.5241C87.1712 28.3565 86.8558 28.2727 86.4922 28.2727C86.0916 28.2727 85.745 28.3722 85.4524 28.571C85.1626 28.767 84.9396 29.0227 84.7834 29.3381C84.6271 29.6534 84.549 29.9915 84.549 30.3523V30.9318C84.549 31.4261 84.6342 31.8452 84.8047 32.1889C84.978 32.5298 85.218 32.7898 85.5249 32.9688C85.8317 33.1449 86.1882 33.233 86.5945 33.233C86.8587 33.233 87.0973 33.196 87.3104 33.1222C87.5263 33.0455 87.7124 32.9318 87.8686 32.7812C88.0249 32.6278 88.1456 32.4375 88.2308 32.2102L89.2024 32.483C89.1001 32.8125 88.9283 33.1023 88.6868 33.3523C88.4453 33.5994 88.147 33.7926 87.7919 33.9318C87.4368 34.0682 87.0376 34.1364 86.5945 34.1364ZM95.2152 30.0625V34H94.2095V25.2727H95.2152V28.4773H95.3004C95.4538 28.1392 95.6839 27.8707 95.9908 27.6719C96.3004 27.4702 96.7124 27.3693 97.2266 27.3693C97.6726 27.3693 98.0632 27.4588 98.3984 27.6378C98.7337 27.8139 98.9936 28.0852 99.1783 28.4517C99.3658 28.8153 99.4595 29.2784 99.4595 29.8409V34H98.4538V29.9091C98.4538 29.3892 98.3189 28.9872 98.049 28.7031C97.782 28.4162 97.4112 28.2727 96.9368 28.2727C96.6072 28.2727 96.3118 28.3423 96.0504 28.4815C95.7919 28.6207 95.5874 28.8239 95.4368 29.0909C95.2891 29.358 95.2152 29.6818 95.2152 30.0625ZM103.958 34.1364C103.368 34.1364 102.849 33.9957 102.403 33.7145C101.96 33.4332 101.613 33.0398 101.363 32.5341C101.116 32.0284 100.993 31.4375 100.993 30.7614C100.993 30.0795 101.116 29.4844 101.363 28.9759C101.613 28.4673 101.96 28.0724 102.403 27.7912C102.849 27.5099 103.368 27.3693 103.958 27.3693C104.549 27.3693 105.066 27.5099 105.51 27.7912C105.956 28.0724 106.302 28.4673 106.549 28.9759C106.799 29.4844 106.924 30.0795 106.924 30.7614C106.924 31.4375 106.799 32.0284 106.549 32.5341C106.302 33.0398 105.956 33.4332 105.51 33.7145C105.066 33.9957 104.549 34.1364 103.958 34.1364ZM103.958 33.233C104.407 33.233 104.777 33.1179 105.066 32.8878C105.356 32.6577 105.571 32.3551 105.71 31.9801C105.849 31.6051 105.919 31.1989 105.919 30.7614C105.919 30.3239 105.849 29.9162 105.71 29.5384C105.571 29.1605 105.356 28.8551 105.066 28.6222C104.777 28.3892 104.407 28.2727 103.958 28.2727C103.51 28.2727 103.14 28.3892 102.85 28.6222C102.561 28.8551 102.346 29.1605 102.207 29.5384C102.068 29.9162 101.998 30.3239 101.998 30.7614C101.998 31.1989 102.068 31.6051 102.207 31.9801C102.346 32.3551 102.561 32.6577 102.85 32.8878C103.14 33.1179 103.51 33.233 103.958 33.233ZM109.465 25.2727V34H108.46V25.2727H109.465ZM113.779 34.1364C113.233 34.1364 112.752 33.9986 112.334 33.723C111.917 33.4446 111.59 33.0526 111.354 32.5469C111.118 32.0384 111 31.4375 111 30.7443C111 30.0568 111.118 29.4602 111.354 28.9545C111.59 28.4489 111.918 28.0582 112.338 27.7827C112.759 27.5071 113.245 27.3693 113.796 27.3693C114.222 27.3693 114.559 27.4403 114.806 27.5824C115.056 27.7216 115.246 27.8807 115.377 28.0597C115.51 28.2358 115.614 28.3807 115.688 28.4943H115.773V25.2727H116.779V34H115.807V32.9943H115.688C115.614 33.1136 115.509 33.2642 115.373 33.446C115.236 33.625 115.042 33.7855 114.789 33.9276C114.536 34.0668 114.199 34.1364 113.779 34.1364ZM113.915 33.233C114.319 33.233 114.659 33.1278 114.938 32.9176C115.216 32.7045 115.428 32.4105 115.573 32.0355C115.718 31.6577 115.79 31.2216 115.79 30.7273C115.79 30.2386 115.719 29.8111 115.577 29.4446C115.435 29.0753 115.225 28.7884 114.946 28.5838C114.668 28.3764 114.324 28.2727 113.915 28.2727C113.489 28.2727 113.134 28.3821 112.85 28.6009C112.569 28.8168 112.357 29.1108 112.215 29.483C112.076 29.8523 112.006 30.267 112.006 30.7273C112.006 31.1932 112.077 31.6165 112.219 31.9972C112.364 32.375 112.577 32.6761 112.858 32.9006C113.142 33.1222 113.495 33.233 113.915 33.233ZM121.505 34.1364C120.874 34.1364 120.33 33.9972 119.873 33.7188C119.418 33.4375 119.067 33.0455 118.82 32.5426C118.576 32.0369 118.453 31.4489 118.453 30.7784C118.453 30.108 118.576 29.517 118.82 29.0057C119.067 28.4915 119.411 28.0909 119.851 27.804C120.294 27.5142 120.811 27.3693 121.402 27.3693C121.743 27.3693 122.08 27.4261 122.412 27.5398C122.745 27.6534 123.047 27.8381 123.32 28.0938C123.593 28.3466 123.81 28.6818 123.972 29.0994C124.134 29.517 124.215 30.0312 124.215 30.642V31.0682H119.169V30.1989H123.192C123.192 29.8295 123.118 29.5 122.971 29.2102C122.826 28.9205 122.618 28.6918 122.348 28.5241C122.081 28.3565 121.766 28.2727 121.402 28.2727C121.002 28.2727 120.655 28.3722 120.363 28.571C120.073 28.767 119.85 29.0227 119.694 29.3381C119.537 29.6534 119.459 29.9915 119.459 30.3523V30.9318C119.459 31.4261 119.544 31.8452 119.715 32.1889C119.888 32.5298 120.128 32.7898 120.435 32.9688C120.742 33.1449 121.098 33.233 121.505 33.233C121.769 33.233 122.007 33.196 122.221 33.1222C122.436 33.0455 122.623 32.9318 122.779 32.7812C122.935 32.6278 123.056 32.4375 123.141 32.2102L124.113 32.483C124.01 32.8125 123.838 33.1023 123.597 33.3523C123.355 33.5994 123.057 33.7926 122.702 33.9318C122.347 34.0682 121.948 34.1364 121.505 34.1364ZM125.745 34V27.4545H126.716V28.4432H126.784C126.904 28.1193 127.12 27.8565 127.432 27.6548C127.745 27.4531 128.097 27.3523 128.489 27.3523C128.563 27.3523 128.655 27.3537 128.766 27.3565C128.877 27.3594 128.961 27.3636 129.017 27.3693V28.392C128.983 28.3835 128.905 28.3707 128.783 28.3537C128.664 28.3338 128.537 28.3239 128.404 28.3239C128.086 28.3239 127.801 28.3906 127.551 28.5241C127.304 28.6548 127.108 28.8366 126.963 29.0696C126.821 29.2997 126.75 29.5625 126.75 29.858V34H125.745ZM136.431 27.4545V28.3068H133.039V27.4545H136.431ZM134.028 25.8864H135.033V32.125C135.033 32.4091 135.075 32.6222 135.157 32.7642C135.242 32.9034 135.35 32.9972 135.481 33.0455C135.614 33.0909 135.755 33.1136 135.903 33.1136C136.013 33.1136 136.104 33.108 136.175 33.0966C136.246 33.0824 136.303 33.071 136.346 33.0625L136.55 33.9659C136.482 33.9915 136.387 34.017 136.265 34.0426C136.143 34.071 135.988 34.0852 135.8 34.0852C135.516 34.0852 135.238 34.0241 134.965 33.902C134.695 33.7798 134.471 33.5938 134.292 33.3438C134.116 33.0938 134.028 32.7784 134.028 32.3977V25.8864ZM140.618 34.1364C139.987 34.1364 139.443 33.9972 138.986 33.7188C138.531 33.4375 138.18 33.0455 137.933 32.5426C137.689 32.0369 137.567 31.4489 137.567 30.7784C137.567 30.108 137.689 29.517 137.933 29.0057C138.18 28.4915 138.524 28.0909 138.964 27.804C139.408 27.5142 139.925 27.3693 140.516 27.3693C140.857 27.3693 141.193 27.4261 141.526 27.5398C141.858 27.6534 142.161 27.8381 142.433 28.0938C142.706 28.3466 142.923 28.6818 143.085 29.0994C143.247 29.517 143.328 30.0312 143.328 30.642V31.0682H138.283V30.1989H142.305C142.305 29.8295 142.232 29.5 142.084 29.2102C141.939 28.9205 141.732 28.6918 141.462 28.5241C141.195 28.3565 140.879 28.2727 140.516 28.2727C140.115 28.2727 139.768 28.3722 139.476 28.571C139.186 28.767 138.963 29.0227 138.807 29.3381C138.651 29.6534 138.572 29.9915 138.572 30.3523V30.9318C138.572 31.4261 138.658 31.8452 138.828 32.1889C139.001 32.5298 139.241 32.7898 139.548 32.9688C139.855 33.1449 140.212 33.233 140.618 33.233C140.882 33.233 141.121 33.196 141.334 33.1222C141.55 33.0455 141.736 32.9318 141.892 32.7812C142.048 32.6278 142.169 32.4375 142.254 32.2102L143.226 32.483C143.124 32.8125 142.952 33.1023 142.71 33.3523C142.469 33.5994 142.17 33.7926 141.815 33.9318C141.46 34.0682 141.061 34.1364 140.618 34.1364ZM145.432 27.4545L147 30.1307L148.569 27.4545H149.728L147.614 30.7273L149.728 34H148.569L147 31.4602L145.432 34H144.273L146.353 30.7273L144.273 27.4545H145.432ZM154.009 27.4545V28.3068H150.617V27.4545H154.009ZM151.606 25.8864H152.612V32.125C152.612 32.4091 152.653 32.6222 152.735 32.7642C152.82 32.9034 152.928 32.9972 153.059 33.0455C153.192 33.0909 153.333 33.1136 153.481 33.1136C153.592 33.1136 153.683 33.108 153.754 33.0966C153.825 33.0824 153.881 33.071 153.924 33.0625L154.129 33.9659C154.06 33.9915 153.965 34.017 153.843 34.0426C153.721 34.071 153.566 34.0852 153.379 34.0852C153.094 34.0852 152.816 34.0241 152.543 33.902C152.273 33.7798 152.049 33.5938 151.87 33.3438C151.694 33.0938 151.606 32.7784 151.606 32.3977V25.8864Z" fill="black" fill-opacity="0.5"/>
<path d="M56.0568 12V3.27273H57.1136V11.0625H61.1705V12H56.0568ZM64.5966 12.1534C64.1818 12.1534 63.8054 12.0753 63.4673 11.919C63.1293 11.7599 62.8608 11.5312 62.6619 11.233C62.4631 10.9318 62.3636 10.5682 62.3636 10.142C62.3636 9.76705 62.4375 9.46307 62.5852 9.23011C62.733 8.99432 62.9304 8.80966 63.1776 8.67614C63.4247 8.54261 63.6974 8.44318 63.9957 8.37784C64.2969 8.30966 64.5994 8.25568 64.9034 8.21591C65.3011 8.16477 65.6236 8.12642 65.8707 8.10085C66.1207 8.07244 66.3026 8.02557 66.4162 7.96023C66.5327 7.89489 66.5909 7.78125 66.5909 7.61932V7.58523C66.5909 7.16477 66.4759 6.83807 66.2457 6.60511C66.0185 6.37216 65.6733 6.25568 65.2102 6.25568C64.7301 6.25568 64.3537 6.3608 64.081 6.57102C63.8082 6.78125 63.6165 7.00568 63.5057 7.24432L62.5511 6.90341C62.7216 6.50568 62.9489 6.19602 63.233 5.97443C63.5199 5.75 63.8324 5.59375 64.1705 5.50568C64.5114 5.41477 64.8466 5.36932 65.1761 5.36932C65.3864 5.36932 65.6278 5.39489 65.9006 5.44602C66.1761 5.49432 66.4418 5.59517 66.6974 5.74858C66.956 5.90199 67.1705 6.13352 67.3409 6.44318C67.5114 6.75284 67.5966 7.16761 67.5966 7.6875V12H66.5909V11.1136H66.5398C66.4716 11.2557 66.358 11.4077 66.1989 11.5696C66.0398 11.7315 65.8281 11.8693 65.5639 11.983C65.2997 12.0966 64.9773 12.1534 64.5966 12.1534ZM64.75 11.25C65.1477 11.25 65.483 11.1719 65.7557 11.0156C66.0313 10.8594 66.2386 10.6577 66.3778 10.4105C66.5199 10.1634 66.5909 9.90341 66.5909 9.63068V8.71023C66.5483 8.76136 66.4545 8.80824 66.3097 8.85085C66.1676 8.89062 66.0028 8.92614 65.8153 8.95739C65.6307 8.9858 65.4503 9.01136 65.2741 9.03409C65.1009 9.05398 64.9602 9.07102 64.8523 9.08523C64.5909 9.11932 64.3466 9.17472 64.1193 9.25142C63.8949 9.32528 63.7131 9.4375 63.5739 9.58807C63.4375 9.7358 63.3693 9.9375 63.3693 10.1932C63.3693 10.5426 63.4986 10.8068 63.7571 10.9858C64.0185 11.1619 64.3494 11.25 64.75 11.25ZM69.5685 12V3.27273H70.5742V6.49432H70.6594C70.7333 6.38068 70.8356 6.2358 70.9663 6.05966C71.0998 5.88068 71.2901 5.72159 71.5373 5.58239C71.7873 5.44034 72.1254 5.36932 72.5515 5.36932C73.1026 5.36932 73.5884 5.5071 74.0089 5.78267C74.4293 6.05824 74.7575 6.44886 74.9933 6.95455C75.229 7.46023 75.3469 8.05682 75.3469 8.74432C75.3469 9.4375 75.229 10.0384 74.9933 10.5469C74.7575 11.0526 74.4308 11.4446 74.0131 11.723C73.5955 11.9986 73.114 12.1364 72.5685 12.1364C72.1481 12.1364 71.8114 12.0668 71.5586 11.9276C71.3058 11.7855 71.1112 11.625 70.9748 11.446C70.8384 11.2642 70.7333 11.1136 70.6594 10.9943H70.5401V12H69.5685ZM70.5572 8.72727C70.5572 9.22159 70.6296 9.65767 70.7745 10.0355C70.9194 10.4105 71.131 10.7045 71.4094 10.9176C71.6879 11.1278 72.0288 11.233 72.4322 11.233C72.8526 11.233 73.2035 11.1222 73.4847 10.9006C73.7688 10.6761 73.9819 10.375 74.1239 9.99716C74.2688 9.61648 74.3413 9.19318 74.3413 8.72727C74.3413 8.26705 74.2702 7.85227 74.1282 7.48295C73.989 7.1108 73.7773 6.81676 73.4933 6.60085C73.212 6.3821 72.8583 6.27273 72.4322 6.27273C72.0231 6.27273 71.6793 6.37642 71.4009 6.58381C71.1225 6.78835 70.9123 7.07528 70.7702 7.4446C70.6282 7.81108 70.5572 8.23864 70.5572 8.72727ZM79.6296 12.1364C78.9989 12.1364 78.4549 11.9972 77.9975 11.7188C77.543 11.4375 77.1921 11.0455 76.945 10.5426C76.7006 10.0369 76.5785 9.44886 76.5785 8.77841C76.5785 8.10795 76.7006 7.51705 76.945 7.00568C77.1921 6.49148 77.5359 6.09091 77.9762 5.80398C78.4194 5.5142 78.9364 5.36932 79.5273 5.36932C79.8683 5.36932 80.2049 5.42614 80.5373 5.53977C80.8697 5.65341 81.1722 5.83807 81.445 6.09375C81.7177 6.34659 81.935 6.68182 82.0969 7.09943C82.2589 7.51705 82.3398 8.03125 82.3398 8.64205V9.06818H77.2944V8.19886H81.3171C81.3171 7.82955 81.2433 7.5 81.0955 7.21023C80.9506 6.92045 80.7433 6.69176 80.4734 6.52415C80.2063 6.35653 79.891 6.27273 79.5273 6.27273C79.1268 6.27273 78.7802 6.37216 78.4876 6.57102C78.1978 6.76705 77.9748 7.02273 77.8185 7.33807C77.6623 7.65341 77.5842 7.99148 77.5842 8.35227V8.93182C77.5842 9.42614 77.6694 9.84517 77.8398 10.1889C78.0131 10.5298 78.2532 10.7898 78.56 10.9688C78.8668 11.1449 79.2234 11.233 79.6296 11.233C79.8938 11.233 80.1325 11.196 80.3455 11.1222C80.5614 11.0455 80.7475 10.9318 80.9038 10.7812C81.06 10.6278 81.1808 10.4375 81.266 10.2102L82.2376 10.483C82.1353 10.8125 81.9634 11.1023 81.7219 11.3523C81.4805 11.5994 81.1822 11.7926 80.8271 11.9318C80.4719 12.0682 80.0728 12.1364 79.6296 12.1364ZM84.8754 3.27273V12H83.8697V3.27273H84.8754Z" fill="black"/>
<rect x="52.5" y="73.7932" width="255" height="25.7068" rx="4.5" fill="white" stroke="black"/>
<path d="M60.0569 91V82.2727H63.0057C63.6904 82.2727 64.2501 82.3963 64.6847 82.6435C65.1222 82.8878 65.4461 83.2188 65.6563 83.6364C65.8665 84.054 65.9717 84.5199 65.9717 85.0341C65.9717 85.5483 65.8665 86.0156 65.6563 86.4361C65.4489 86.8565 65.1279 87.1918 64.6932 87.4418C64.2586 87.6889 63.7018 87.8125 63.0228 87.8125H60.9092V86.875H62.9887C63.4574 86.875 63.8339 86.794 64.118 86.6321C64.402 86.4702 64.608 86.2514 64.7359 85.9759C64.8665 85.6974 64.9319 85.3835 64.9319 85.0341C64.9319 84.6847 64.8665 84.3722 64.7359 84.0966C64.608 83.821 64.4006 83.6051 64.1137 83.4489C63.8268 83.2898 63.4461 83.2102 62.9717 83.2102H61.1137V91H60.0569ZM68.5434 82.2727V91H67.5377V82.2727H68.5434ZM72.3115 91.1534C71.8967 91.1534 71.5203 91.0753 71.1822 90.919C70.8442 90.7599 70.5757 90.5312 70.3768 90.233C70.178 89.9318 70.0785 89.5682 70.0785 89.142C70.0785 88.767 70.1524 88.4631 70.3001 88.2301C70.4479 87.9943 70.6453 87.8097 70.8925 87.6761C71.1396 87.5426 71.4123 87.4432 71.7106 87.3778C72.0118 87.3097 72.3143 87.2557 72.6183 87.2159C73.016 87.1648 73.3385 87.1264 73.5856 87.1009C73.8356 87.0724 74.0175 87.0256 74.1311 86.9602C74.2476 86.8949 74.3058 86.7812 74.3058 86.6193V86.5852C74.3058 86.1648 74.1908 85.8381 73.9606 85.6051C73.7334 85.3722 73.3882 85.2557 72.9251 85.2557C72.445 85.2557 72.0686 85.3608 71.7959 85.571C71.5231 85.7812 71.3314 86.0057 71.2206 86.2443L70.266 85.9034C70.4365 85.5057 70.6638 85.196 70.9479 84.9744C71.2348 84.75 71.5473 84.5937 71.8854 84.5057C72.2263 84.4148 72.5615 84.3693 72.891 84.3693C73.1013 84.3693 73.3427 84.3949 73.6155 84.446C73.891 84.4943 74.1567 84.5952 74.4123 84.7486C74.6709 84.902 74.8854 85.1335 75.0558 85.4432C75.2263 85.7528 75.3115 86.1676 75.3115 86.6875V91H74.3058V90.1136H74.2547C74.1865 90.2557 74.0729 90.4077 73.9138 90.5696C73.7547 90.7315 73.543 90.8693 73.2788 90.983C73.0146 91.0966 72.6922 91.1534 72.3115 91.1534ZM72.4649 90.25C72.8626 90.25 73.1979 90.1719 73.4706 90.0156C73.7462 89.8594 73.9535 89.6577 74.0927 89.4105C74.2348 89.1634 74.3058 88.9034 74.3058 88.6307V87.7102C74.2632 87.7614 74.1695 87.8082 74.0246 87.8509C73.8825 87.8906 73.7177 87.9261 73.5302 87.9574C73.3456 87.9858 73.1652 88.0114 72.9891 88.0341C72.8158 88.054 72.6751 88.071 72.5672 88.0852C72.3058 88.1193 72.0615 88.1747 71.8342 88.2514C71.6098 88.3253 71.428 88.4375 71.2888 88.5881C71.1524 88.7358 71.0842 88.9375 71.0842 89.1932C71.0842 89.5426 71.2135 89.8068 71.472 89.9858C71.7334 90.1619 72.0643 90.25 72.4649 90.25ZM79.8062 91.1364C79.1925 91.1364 78.6641 90.9915 78.2209 90.7017C77.7778 90.4119 77.4369 90.0128 77.1982 89.5043C76.9596 88.9957 76.8403 88.4148 76.8403 87.7614C76.8403 87.0966 76.9624 86.5099 77.2067 86.0014C77.4539 85.4901 77.7976 85.0909 78.238 84.804C78.6812 84.5142 79.1982 84.3693 79.7891 84.3693C80.2494 84.3693 80.6641 84.4545 81.0334 84.625C81.4028 84.7955 81.7053 85.0341 81.9411 85.3409C82.1769 85.6477 82.3232 86.0057 82.38 86.4148H81.3744C81.2976 86.1165 81.1272 85.8523 80.863 85.6222C80.6016 85.3892 80.2494 85.2727 79.8062 85.2727C79.4141 85.2727 79.0704 85.375 78.7749 85.5795C78.4823 85.7812 78.2536 86.0668 78.0888 86.4361C77.9269 86.8026 77.8459 87.233 77.8459 87.7273C77.8459 88.233 77.9255 88.6733 78.0846 89.0483C78.2465 89.4233 78.4738 89.7145 78.7664 89.9219C79.0619 90.1293 79.4084 90.233 79.8062 90.233C80.0675 90.233 80.3047 90.1875 80.5178 90.0966C80.7309 90.0057 80.9113 89.875 81.059 89.7045C81.2067 89.5341 81.3119 89.3295 81.3744 89.0909H82.38C82.3232 89.4773 82.1826 89.8253 81.9582 90.1349C81.7366 90.4418 81.4425 90.6861 81.0761 90.8679C80.7124 91.0469 80.2891 91.1364 79.8062 91.1364ZM86.5945 91.1364C85.9638 91.1364 85.4198 90.9972 84.9624 90.7188C84.5079 90.4375 84.157 90.0455 83.9099 89.5426C83.6655 89.0369 83.5434 88.4489 83.5434 87.7784C83.5434 87.108 83.6655 86.517 83.9099 86.0057C84.157 85.4915 84.5008 85.0909 84.9411 84.804C85.3843 84.5142 85.9013 84.3693 86.4922 84.3693C86.8332 84.3693 87.1698 84.4261 87.5022 84.5398C87.8346 84.6534 88.1371 84.8381 88.4099 85.0938C88.6826 85.3466 88.8999 85.6818 89.0619 86.0994C89.2238 86.517 89.3047 87.0312 89.3047 87.642V88.0682H84.2593V87.1989H88.282C88.282 86.8295 88.2082 86.5 88.0604 86.2102C87.9155 85.9205 87.7082 85.6918 87.4383 85.5241C87.1712 85.3565 86.8559 85.2727 86.4922 85.2727C86.0917 85.2727 85.7451 85.3722 85.4525 85.571C85.1627 85.767 84.9397 86.0227 84.7834 86.3381C84.6272 86.6534 84.5491 86.9915 84.5491 87.3523V87.9318C84.5491 88.4261 84.6343 88.8452 84.8047 89.1889C84.978 89.5298 85.2181 89.7898 85.5249 89.9688C85.8317 90.1449 86.1883 90.233 86.5945 90.233C86.8587 90.233 87.0974 90.196 87.3104 90.1222C87.5263 90.0455 87.7124 89.9318 87.8687 89.7812C88.0249 89.6278 88.1457 89.4375 88.2309 89.2102L89.2025 89.483C89.1002 89.8125 88.9283 90.1023 88.6869 90.3523C88.4454 90.5994 88.1471 90.7926 87.792 90.9318C87.4369 91.0682 87.0377 91.1364 86.5945 91.1364ZM95.2153 87.0625V91H94.2096V82.2727H95.2153V85.4773H95.3005C95.4539 85.1392 95.684 84.8707 95.9908 84.6719C96.3005 84.4702 96.7124 84.3693 97.2266 84.3693C97.6726 84.3693 98.0633 84.4588 98.3985 84.6378C98.7337 84.8139 98.9937 85.0852 99.1783 85.4517C99.3658 85.8153 99.4596 86.2784 99.4596 86.8409V91H98.4539V86.9091C98.4539 86.3892 98.319 85.9872 98.0491 85.7031C97.782 85.4162 97.4113 85.2727 96.9369 85.2727C96.6073 85.2727 96.3119 85.3423 96.0505 85.4815C95.792 85.6207 95.5874 85.8239 95.4369 86.0909C95.2891 86.358 95.2153 86.6818 95.2153 87.0625ZM103.959 91.1364C103.368 91.1364 102.849 90.9957 102.403 90.7145C101.96 90.4332 101.613 90.0398 101.363 89.5341C101.116 89.0284 100.993 88.4375 100.993 87.7614C100.993 87.0795 101.116 86.4844 101.363 85.9759C101.613 85.4673 101.96 85.0724 102.403 84.7912C102.849 84.5099 103.368 84.3693 103.959 84.3693C104.549 84.3693 105.066 84.5099 105.51 84.7912C105.956 85.0724 106.302 85.4673 106.549 85.9759C106.799 86.4844 106.924 87.0795 106.924 87.7614C106.924 88.4375 106.799 89.0284 106.549 89.5341C106.302 90.0398 105.956 90.4332 105.51 90.7145C105.066 90.9957 104.549 91.1364 103.959 91.1364ZM103.959 90.233C104.407 90.233 104.777 90.1179 105.066 89.8878C105.356 89.6577 105.571 89.3551 105.71 88.9801C105.849 88.6051 105.919 88.1989 105.919 87.7614C105.919 87.3239 105.849 86.9162 105.71 86.5384C105.571 86.1605 105.356 85.8551 105.066 85.6222C104.777 85.3892 104.407 85.2727 103.959 85.2727C103.51 85.2727 103.14 85.3892 102.851 85.6222C102.561 85.8551 102.346 86.1605 102.207 86.5384C102.068 86.9162 101.998 87.3239 101.998 87.7614C101.998 88.1989 102.068 88.6051 102.207 88.9801C102.346 89.3551 102.561 89.6577 102.851 89.8878C103.14 90.1179 103.51 90.233 103.959 90.233ZM109.465 82.2727V91H108.46V82.2727H109.465ZM113.779 91.1364C113.233 91.1364 112.752 90.9986 112.334 90.723C111.917 90.4446 111.59 90.0526 111.354 89.5469C111.118 89.0384 111 88.4375 111 87.7443C111 87.0568 111.118 86.4602 111.354 85.9545C111.59 85.4489 111.918 85.0582 112.338 84.7827C112.759 84.5071 113.245 84.3693 113.796 84.3693C114.222 84.3693 114.559 84.4403 114.806 84.5824C115.056 84.7216 115.246 84.8807 115.377 85.0597C115.51 85.2358 115.614 85.3807 115.688 85.4943H115.773V82.2727H116.779V91H115.807V89.9943H115.688C115.614 90.1136 115.509 90.2642 115.373 90.446C115.236 90.625 115.042 90.7855 114.789 90.9276C114.536 91.0668 114.199 91.1364 113.779 91.1364ZM113.915 90.233C114.319 90.233 114.66 90.1278 114.938 89.9176C115.216 89.7045 115.428 89.4105 115.573 89.0355C115.718 88.6577 115.79 88.2216 115.79 87.7273C115.79 87.2386 115.719 86.8111 115.577 86.4446C115.435 86.0753 115.225 85.7884 114.946 85.5838C114.668 85.3764 114.324 85.2727 113.915 85.2727C113.489 85.2727 113.134 85.3821 112.85 85.6009C112.569 85.8168 112.357 86.1108 112.215 86.483C112.076 86.8523 112.006 87.267 112.006 87.7273C112.006 88.1932 112.077 88.6165 112.219 88.9972C112.364 89.375 112.577 89.6761 112.858 89.9006C113.142 90.1222 113.495 90.233 113.915 90.233ZM121.505 91.1364C120.874 91.1364 120.33 90.9972 119.873 90.7188C119.418 90.4375 119.067 90.0455 118.82 89.5426C118.576 89.0369 118.454 88.4489 118.454 87.7784C118.454 87.108 118.576 86.517 118.82 86.0057C119.067 85.4915 119.411 85.0909 119.851 84.804C120.294 84.5142 120.811 84.3693 121.402 84.3693C121.743 84.3693 122.08 84.4261 122.412 84.5398C122.745 84.6534 123.047 84.8381 123.32 85.0938C123.593 85.3466 123.81 85.6818 123.972 86.0994C124.134 86.517 124.215 87.0312 124.215 87.642V88.0682H119.169V87.1989H123.192C123.192 86.8295 123.118 86.5 122.971 86.2102C122.826 85.9205 122.618 85.6918 122.348 85.5241C122.081 85.3565 121.766 85.2727 121.402 85.2727C121.002 85.2727 120.655 85.3722 120.363 85.571C120.073 85.767 119.85 86.0227 119.694 86.3381C119.537 86.6534 119.459 86.9915 119.459 87.3523V87.9318C119.459 88.4261 119.544 88.8452 119.715 89.1889C119.888 89.5298 120.128 89.7898 120.435 89.9688C120.742 90.1449 121.098 90.233 121.505 90.233C121.769 90.233 122.008 90.196 122.221 90.1222C122.436 90.0455 122.623 89.9318 122.779 89.7812C122.935 89.6278 123.056 89.4375 123.141 89.2102L124.113 89.483C124.01 89.8125 123.838 90.1023 123.597 90.3523C123.356 90.5994 123.057 90.7926 122.702 90.9318C122.347 91.0682 121.948 91.1364 121.505 91.1364ZM125.745 91V84.4545H126.716V85.4432H126.785C126.904 85.1193 127.12 84.8565 127.432 84.6548C127.745 84.4531 128.097 84.3523 128.489 84.3523C128.563 84.3523 128.655 84.3537 128.766 84.3565C128.877 84.3594 128.961 84.3636 129.017 84.3693V85.392C128.983 85.3835 128.905 85.3707 128.783 85.3537C128.664 85.3338 128.537 85.3239 128.404 85.3239C128.086 85.3239 127.802 85.3906 127.552 85.5241C127.304 85.6548 127.108 85.8366 126.963 86.0696C126.821 86.2997 126.75 86.5625 126.75 86.858V91H125.745ZM136.431 84.4545V85.3068H133.039V84.4545H136.431ZM134.028 82.8864H135.033V89.125C135.033 89.4091 135.075 89.6222 135.157 89.7642C135.242 89.9034 135.35 89.9972 135.481 90.0455C135.614 90.0909 135.755 90.1136 135.903 90.1136C136.014 90.1136 136.104 90.108 136.175 90.0966C136.247 90.0824 136.303 90.071 136.346 90.0625L136.55 90.9659C136.482 90.9915 136.387 91.017 136.265 91.0426C136.143 91.071 135.988 91.0852 135.8 91.0852C135.516 91.0852 135.238 91.0241 134.965 90.902C134.695 90.7798 134.471 90.5938 134.292 90.3438C134.116 90.0938 134.028 89.7784 134.028 89.3977V82.8864ZM140.618 91.1364C139.987 91.1364 139.443 90.9972 138.986 90.7188C138.531 90.4375 138.18 90.0455 137.933 89.5426C137.689 89.0369 137.567 88.4489 137.567 87.7784C137.567 87.108 137.689 86.517 137.933 86.0057C138.18 85.4915 138.524 85.0909 138.965 84.804C139.408 84.5142 139.925 84.3693 140.516 84.3693C140.857 84.3693 141.193 84.4261 141.526 84.5398C141.858 84.6534 142.161 84.8381 142.433 85.0938C142.706 85.3466 142.923 85.6818 143.085 86.0994C143.247 86.517 143.328 87.0312 143.328 87.642V88.0682H138.283V87.1989H142.305C142.305 86.8295 142.232 86.5 142.084 86.2102C141.939 85.9205 141.732 85.6918 141.462 85.5241C141.195 85.3565 140.879 85.2727 140.516 85.2727C140.115 85.2727 139.769 85.3722 139.476 85.571C139.186 85.767 138.963 86.0227 138.807 86.3381C138.651 86.6534 138.573 86.9915 138.573 87.3523V87.9318C138.573 88.4261 138.658 88.8452 138.828 89.1889C139.001 89.5298 139.242 89.7898 139.548 89.9688C139.855 90.1449 140.212 90.233 140.618 90.233C140.882 90.233 141.121 90.196 141.334 90.1222C141.55 90.0455 141.736 89.9318 141.892 89.7812C142.048 89.6278 142.169 89.4375 142.254 89.2102L143.226 89.483C143.124 89.8125 142.952 90.1023 142.71 90.3523C142.469 90.5994 142.171 90.7926 141.815 90.9318C141.46 91.0682 141.061 91.1364 140.618 91.1364ZM145.432 84.4545L147 87.1307L148.569 84.4545H149.728L147.614 87.7273L149.728 91H148.569L147 88.4602L145.432 91H144.273L146.353 87.7273L144.273 84.4545H145.432ZM154.009 84.4545V85.3068H150.617V84.4545H154.009ZM151.606 82.8864H152.612V89.125C152.612 89.4091 152.653 89.6222 152.735 89.7642C152.82 89.9034 152.928 89.9972 153.059 90.0455C153.193 90.0909 153.333 90.1136 153.481 90.1136C153.592 90.1136 153.683 90.108 153.754 90.0966C153.825 90.0824 153.881 90.071 153.924 90.0625L154.129 90.9659C154.06 90.9915 153.965 91.017 153.843 91.0426C153.721 91.071 153.566 91.0852 153.379 91.0852C153.095 91.0852 152.816 91.0241 152.543 90.902C152.273 90.7798 152.049 90.5938 151.87 90.3438C151.694 90.0938 151.606 89.7784 151.606 89.3977V82.8864Z" fill="black" fill-opacity="0.5"/>
<path d="M56.0569 69V60.2727H57.1137V68.0625H61.1705V69H56.0569ZM64.5967 69.1534C64.1819 69.1534 63.8055 69.0753 63.4674 68.919C63.1293 68.7599 62.8609 68.5312 62.662 68.233C62.4631 67.9318 62.3637 67.5682 62.3637 67.142C62.3637 66.767 62.4376 66.4631 62.5853 66.2301C62.733 65.9943 62.9305 65.8097 63.1776 65.6761C63.4248 65.5426 63.6975 65.4432 63.9958 65.3778C64.2969 65.3097 64.5995 65.2557 64.9035 65.2159C65.3012 65.1648 65.6236 65.1264 65.8708 65.1009C66.1208 65.0724 66.3026 65.0256 66.4163 64.9602C66.5327 64.8949 66.591 64.7812 66.591 64.6193V64.5852C66.591 64.1648 66.4759 63.8381 66.2458 63.6051C66.0185 63.3722 65.6734 63.2557 65.2103 63.2557C64.7302 63.2557 64.3538 63.3608 64.081 63.571C63.8083 63.7812 63.6165 64.0057 63.5057 64.2443L62.5512 63.9034C62.7217 63.5057 62.9489 63.196 63.233 62.9744C63.5199 62.75 63.8324 62.5937 64.1705 62.5057C64.5114 62.4148 64.8467 62.3693 65.1762 62.3693C65.3864 62.3693 65.6279 62.3949 65.9006 62.446C66.1762 62.4943 66.4418 62.5952 66.6975 62.7486C66.956 62.902 67.1705 63.1335 67.341 63.4432C67.5114 63.7528 67.5967 64.1676 67.5967 64.6875V69H66.591V68.1136H66.5398C66.4717 68.2557 66.358 68.4077 66.1989 68.5696C66.0398 68.7315 65.8282 68.8693 65.564 68.983C65.2998 69.0966 64.9773 69.1534 64.5967 69.1534ZM64.7501 68.25C65.1478 68.25 65.483 68.1719 65.7557 68.0156C66.0313 67.8594 66.2387 67.6577 66.3779 67.4105C66.5199 67.1634 66.591 66.9034 66.591 66.6307V65.7102C66.5484 65.7614 66.4546 65.8082 66.3097 65.8509C66.1677 65.8906 66.0029 65.9261 65.8154 65.9574C65.6307 65.9858 65.4503 66.0114 65.2742 66.0341C65.1009 66.054 64.9603 66.071 64.8523 66.0852C64.591 66.1193 64.3467 66.1747 64.1194 66.2514C63.8949 66.3253 63.7131 66.4375 63.5739 66.5881C63.4376 66.7358 63.3694 66.9375 63.3694 67.1932C63.3694 67.5426 63.4986 67.8068 63.7572 67.9858C64.0185 68.1619 64.3495 68.25 64.7501 68.25ZM69.5686 69V60.2727H70.5743V63.4943H70.6595C70.7334 63.3807 70.8356 63.2358 70.9663 63.0597C71.0998 62.8807 71.2902 62.7216 71.5373 62.5824C71.7873 62.4403 72.1254 62.3693 72.5516 62.3693C73.1027 62.3693 73.5885 62.5071 74.0089 62.7827C74.4294 63.0582 74.7575 63.4489 74.9933 63.9545C75.2291 64.4602 75.347 65.0568 75.347 65.7443C75.347 66.4375 75.2291 67.0384 74.9933 67.5469C74.7575 68.0526 74.4308 68.4446 74.0132 68.723C73.5956 68.9986 73.1141 69.1364 72.5686 69.1364C72.1481 69.1364 71.8115 69.0668 71.5587 68.9276C71.3058 68.7855 71.1112 68.625 70.9748 68.446C70.8385 68.2642 70.7334 68.1136 70.6595 67.9943H70.5402V69H69.5686ZM70.5572 65.7273C70.5572 66.2216 70.6297 66.6577 70.7746 67.0355C70.9195 67.4105 71.1311 67.7045 71.4095 67.9176C71.6879 68.1278 72.0288 68.233 72.4322 68.233C72.8527 68.233 73.2035 68.1222 73.4848 67.9006C73.7689 67.6761 73.982 67.375 74.124 66.9972C74.2689 66.6165 74.3413 66.1932 74.3413 65.7273C74.3413 65.267 74.2703 64.8523 74.1283 64.483C73.9891 64.1108 73.7774 63.8168 73.4933 63.6009C73.2121 63.3821 72.8584 63.2727 72.4322 63.2727C72.0231 63.2727 71.6794 63.3764 71.401 63.5838C71.1226 63.7884 70.9123 64.0753 70.7703 64.4446C70.6283 64.8111 70.5572 65.2386 70.5572 65.7273ZM79.6297 69.1364C78.999 69.1364 78.455 68.9972 77.9976 68.7188C77.543 68.4375 77.1922 68.0455 76.945 67.5426C76.7007 67.0369 76.5785 66.4489 76.5785 65.7784C76.5785 65.108 76.7007 64.517 76.945 64.0057C77.1922 63.4915 77.5359 63.0909 77.9763 62.804C78.4195 62.5142 78.9365 62.3693 79.5274 62.3693C79.8683 62.3693 80.205 62.4261 80.5373 62.5398C80.8697 62.6534 81.1723 62.8381 81.445 63.0938C81.7177 63.3466 81.9351 63.6818 82.097 64.0994C82.2589 64.517 82.3399 65.0312 82.3399 65.642V66.0682H77.2945V65.1989H81.3172C81.3172 64.8295 81.2433 64.5 81.0956 64.2102C80.9507 63.9205 80.7433 63.6918 80.4734 63.5241C80.2064 63.3565 79.891 63.2727 79.5274 63.2727C79.1268 63.2727 78.7802 63.3722 78.4876 63.571C78.1979 63.767 77.9748 64.0227 77.8186 64.3381C77.6623 64.6534 77.5842 64.9915 77.5842 65.3523V65.9318C77.5842 66.4261 77.6695 66.8452 77.8399 67.1889C78.0132 67.5298 78.2533 67.7898 78.5601 67.9688C78.8669 68.1449 79.2234 68.233 79.6297 68.233C79.8939 68.233 80.1325 68.196 80.3456 68.1222C80.5615 68.0455 80.7476 67.9318 80.9038 67.7812C81.0601 67.6278 81.1808 67.4375 81.266 67.2102L82.2376 67.483C82.1354 67.8125 81.9635 68.1023 81.722 68.3523C81.4805 68.5994 81.1822 68.7926 80.8271 68.9318C80.472 69.0682 80.0729 69.1364 79.6297 69.1364ZM84.8754 60.2727V69H83.8697V60.2727H84.8754Z" fill="black"/>
<rect x="52.5" y="130.793" width="255" height="25.7068" rx="4.5" fill="white" stroke="black"/>
<path d="M60.0569 148V139.273H63.0057C63.6904 139.273 64.2501 139.396 64.6847 139.643C65.1222 139.888 65.4461 140.219 65.6563 140.636C65.8665 141.054 65.9717 141.52 65.9717 142.034C65.9717 142.548 65.8665 143.016 65.6563 143.436C65.4489 143.857 65.1279 144.192 64.6932 144.442C64.2586 144.689 63.7018 144.812 63.0228 144.812H60.9092V143.875H62.9887C63.4574 143.875 63.8339 143.794 64.118 143.632C64.402 143.47 64.608 143.251 64.7359 142.976C64.8665 142.697 64.9319 142.384 64.9319 142.034C64.9319 141.685 64.8665 141.372 64.7359 141.097C64.608 140.821 64.4006 140.605 64.1137 140.449C63.8268 140.29 63.4461 140.21 62.9717 140.21H61.1137V148H60.0569ZM68.5434 139.273V148H67.5377V139.273H68.5434ZM72.3115 148.153C71.8967 148.153 71.5203 148.075 71.1822 147.919C70.8442 147.76 70.5757 147.531 70.3768 147.233C70.178 146.932 70.0785 146.568 70.0785 146.142C70.0785 145.767 70.1524 145.463 70.3001 145.23C70.4479 144.994 70.6453 144.81 70.8925 144.676C71.1396 144.543 71.4123 144.443 71.7106 144.378C72.0118 144.31 72.3143 144.256 72.6183 144.216C73.016 144.165 73.3385 144.126 73.5856 144.101C73.8356 144.072 74.0175 144.026 74.1311 143.96C74.2476 143.895 74.3058 143.781 74.3058 143.619V143.585C74.3058 143.165 74.1908 142.838 73.9606 142.605C73.7334 142.372 73.3882 142.256 72.9251 142.256C72.445 142.256 72.0686 142.361 71.7959 142.571C71.5231 142.781 71.3314 143.006 71.2206 143.244L70.266 142.903C70.4365 142.506 70.6638 142.196 70.9479 141.974C71.2348 141.75 71.5473 141.594 71.8854 141.506C72.2263 141.415 72.5615 141.369 72.891 141.369C73.1013 141.369 73.3427 141.395 73.6155 141.446C73.891 141.494 74.1567 141.595 74.4123 141.749C74.6709 141.902 74.8854 142.134 75.0558 142.443C75.2263 142.753 75.3115 143.168 75.3115 143.688V148H74.3058V147.114H74.2547C74.1865 147.256 74.0729 147.408 73.9138 147.57C73.7547 147.732 73.543 147.869 73.2788 147.983C73.0146 148.097 72.6922 148.153 72.3115 148.153ZM72.4649 147.25C72.8626 147.25 73.1979 147.172 73.4706 147.016C73.7462 146.859 73.9535 146.658 74.0927 146.411C74.2348 146.163 74.3058 145.903 74.3058 145.631V144.71C74.2632 144.761 74.1695 144.808 74.0246 144.851C73.8825 144.891 73.7177 144.926 73.5302 144.957C73.3456 144.986 73.1652 145.011 72.9891 145.034C72.8158 145.054 72.6751 145.071 72.5672 145.085C72.3058 145.119 72.0615 145.175 71.8342 145.251C71.6098 145.325 71.428 145.437 71.2888 145.588C71.1524 145.736 71.0842 145.937 71.0842 146.193C71.0842 146.543 71.2135 146.807 71.472 146.986C71.7334 147.162 72.0643 147.25 72.4649 147.25ZM79.8062 148.136C79.1925 148.136 78.6641 147.991 78.2209 147.702C77.7778 147.412 77.4369 147.013 77.1982 146.504C76.9596 145.996 76.8403 145.415 76.8403 144.761C76.8403 144.097 76.9624 143.51 77.2067 143.001C77.4539 142.49 77.7976 142.091 78.238 141.804C78.6812 141.514 79.1982 141.369 79.7891 141.369C80.2494 141.369 80.6641 141.455 81.0334 141.625C81.4028 141.795 81.7053 142.034 81.9411 142.341C82.1769 142.648 82.3232 143.006 82.38 143.415H81.3744C81.2976 143.116 81.1272 142.852 80.863 142.622C80.6016 142.389 80.2494 142.273 79.8062 142.273C79.4141 142.273 79.0704 142.375 78.7749 142.58C78.4823 142.781 78.2536 143.067 78.0888 143.436C77.9269 143.803 77.8459 144.233 77.8459 144.727C77.8459 145.233 77.9255 145.673 78.0846 146.048C78.2465 146.423 78.4738 146.714 78.7664 146.922C79.0619 147.129 79.4084 147.233 79.8062 147.233C80.0675 147.233 80.3047 147.188 80.5178 147.097C80.7309 147.006 80.9113 146.875 81.059 146.705C81.2067 146.534 81.3119 146.33 81.3744 146.091H82.38C82.3232 146.477 82.1826 146.825 81.9582 147.135C81.7366 147.442 81.4425 147.686 81.0761 147.868C80.7124 148.047 80.2891 148.136 79.8062 148.136ZM86.5945 148.136C85.9638 148.136 85.4198 147.997 84.9624 147.719C84.5079 147.438 84.157 147.045 83.9099 146.543C83.6655 146.037 83.5434 145.449 83.5434 144.778C83.5434 144.108 83.6655 143.517 83.9099 143.006C84.157 142.491 84.5008 142.091 84.9411 141.804C85.3843 141.514 85.9013 141.369 86.4922 141.369C86.8332 141.369 87.1698 141.426 87.5022 141.54C87.8346 141.653 88.1371 141.838 88.4099 142.094C88.6826 142.347 88.8999 142.682 89.0619 143.099C89.2238 143.517 89.3047 144.031 89.3047 144.642V145.068H84.2593V144.199H88.282C88.282 143.83 88.2082 143.5 88.0604 143.21C87.9155 142.92 87.7082 142.692 87.4383 142.524C87.1712 142.357 86.8559 142.273 86.4922 142.273C86.0917 142.273 85.7451 142.372 85.4525 142.571C85.1627 142.767 84.9397 143.023 84.7834 143.338C84.6272 143.653 84.5491 143.991 84.5491 144.352V144.932C84.5491 145.426 84.6343 145.845 84.8047 146.189C84.978 146.53 85.2181 146.79 85.5249 146.969C85.8317 147.145 86.1883 147.233 86.5945 147.233C86.8587 147.233 87.0974 147.196 87.3104 147.122C87.5263 147.045 87.7124 146.932 87.8687 146.781C88.0249 146.628 88.1457 146.437 88.2309 146.21L89.2025 146.483C89.1002 146.812 88.9283 147.102 88.6869 147.352C88.4454 147.599 88.1471 147.793 87.792 147.932C87.4369 148.068 87.0377 148.136 86.5945 148.136ZM95.2153 144.062V148H94.2096V139.273H95.2153V142.477H95.3005C95.4539 142.139 95.684 141.871 95.9908 141.672C96.3005 141.47 96.7124 141.369 97.2266 141.369C97.6726 141.369 98.0633 141.459 98.3985 141.638C98.7337 141.814 98.9937 142.085 99.1783 142.452C99.3658 142.815 99.4596 143.278 99.4596 143.841V148H98.4539V143.909C98.4539 143.389 98.319 142.987 98.0491 142.703C97.782 142.416 97.4113 142.273 96.9369 142.273C96.6073 142.273 96.3119 142.342 96.0505 142.482C95.792 142.621 95.5874 142.824 95.4369 143.091C95.2891 143.358 95.2153 143.682 95.2153 144.062ZM103.959 148.136C103.368 148.136 102.849 147.996 102.403 147.714C101.96 147.433 101.613 147.04 101.363 146.534C101.116 146.028 100.993 145.437 100.993 144.761C100.993 144.08 101.116 143.484 101.363 142.976C101.613 142.467 101.96 142.072 102.403 141.791C102.849 141.51 103.368 141.369 103.959 141.369C104.549 141.369 105.066 141.51 105.51 141.791C105.956 142.072 106.302 142.467 106.549 142.976C106.799 143.484 106.924 144.08 106.924 144.761C106.924 145.437 106.799 146.028 106.549 146.534C106.302 147.04 105.956 147.433 105.51 147.714C105.066 147.996 104.549 148.136 103.959 148.136ZM103.959 147.233C104.407 147.233 104.777 147.118 105.066 146.888C105.356 146.658 105.571 146.355 105.71 145.98C105.849 145.605 105.919 145.199 105.919 144.761C105.919 144.324 105.849 143.916 105.71 143.538C105.571 143.161 105.356 142.855 105.066 142.622C104.777 142.389 104.407 142.273 103.959 142.273C103.51 142.273 103.14 142.389 102.851 142.622C102.561 142.855 102.346 143.161 102.207 143.538C102.068 143.916 101.998 144.324 101.998 144.761C101.998 145.199 102.068 145.605 102.207 145.98C102.346 146.355 102.561 146.658 102.851 146.888C103.14 147.118 103.51 147.233 103.959 147.233ZM109.465 139.273V148H108.46V139.273H109.465ZM113.779 148.136C113.233 148.136 112.752 147.999 112.334 147.723C111.917 147.445 111.59 147.053 111.354 146.547C111.118 146.038 111 145.438 111 144.744C111 144.057 111.118 143.46 111.354 142.955C111.59 142.449 111.918 142.058 112.338 141.783C112.759 141.507 113.245 141.369 113.796 141.369C114.222 141.369 114.559 141.44 114.806 141.582C115.056 141.722 115.246 141.881 115.377 142.06C115.51 142.236 115.614 142.381 115.688 142.494H115.773V139.273H116.779V148H115.807V146.994H115.688C115.614 147.114 115.509 147.264 115.373 147.446C115.236 147.625 115.042 147.786 114.789 147.928C114.536 148.067 114.199 148.136 113.779 148.136ZM113.915 147.233C114.319 147.233 114.66 147.128 114.938 146.918C115.216 146.705 115.428 146.411 115.573 146.036C115.718 145.658 115.79 145.222 115.79 144.727C115.79 144.239 115.719 143.811 115.577 143.445C115.435 143.075 115.225 142.788 114.946 142.584C114.668 142.376 114.324 142.273 113.915 142.273C113.489 142.273 113.134 142.382 112.85 142.601C112.569 142.817 112.357 143.111 112.215 143.483C112.076 143.852 112.006 144.267 112.006 144.727C112.006 145.193 112.077 145.616 112.219 145.997C112.364 146.375 112.577 146.676 112.858 146.901C113.142 147.122 113.495 147.233 113.915 147.233ZM121.505 148.136C120.874 148.136 120.33 147.997 119.873 147.719C119.418 147.438 119.067 147.045 118.82 146.543C118.576 146.037 118.454 145.449 118.454 144.778C118.454 144.108 118.576 143.517 118.82 143.006C119.067 142.491 119.411 142.091 119.851 141.804C120.294 141.514 120.811 141.369 121.402 141.369C121.743 141.369 122.08 141.426 122.412 141.54C122.745 141.653 123.047 141.838 123.32 142.094C123.593 142.347 123.81 142.682 123.972 143.099C124.134 143.517 124.215 144.031 124.215 144.642V145.068H119.169V144.199H123.192C123.192 143.83 123.118 143.5 122.971 143.21C122.826 142.92 122.618 142.692 122.348 142.524C122.081 142.357 121.766 142.273 121.402 142.273C121.002 142.273 120.655 142.372 120.363 142.571C120.073 142.767 119.85 143.023 119.694 143.338C119.537 143.653 119.459 143.991 119.459 144.352V144.932C119.459 145.426 119.544 145.845 119.715 146.189C119.888 146.53 120.128 146.79 120.435 146.969C120.742 147.145 121.098 147.233 121.505 147.233C121.769 147.233 122.008 147.196 122.221 147.122C122.436 147.045 122.623 146.932 122.779 146.781C122.935 146.628 123.056 146.437 123.141 146.21L124.113 146.483C124.01 146.812 123.838 147.102 123.597 147.352C123.356 147.599 123.057 147.793 122.702 147.932C122.347 148.068 121.948 148.136 121.505 148.136ZM125.745 148V141.455H126.716V142.443H126.785C126.904 142.119 127.12 141.857 127.432 141.655C127.745 141.453 128.097 141.352 128.489 141.352C128.563 141.352 128.655 141.354 128.766 141.357C128.877 141.359 128.961 141.364 129.017 141.369V142.392C128.983 142.384 128.905 142.371 128.783 142.354C128.664 142.334 128.537 142.324 128.404 142.324C128.086 142.324 127.802 142.391 127.552 142.524C127.304 142.655 127.108 142.837 126.963 143.07C126.821 143.3 126.75 143.562 126.75 143.858V148H125.745ZM136.431 141.455V142.307H133.039V141.455H136.431ZM134.028 139.886H135.033V146.125C135.033 146.409 135.075 146.622 135.157 146.764C135.242 146.903 135.35 146.997 135.481 147.045C135.614 147.091 135.755 147.114 135.903 147.114C136.014 147.114 136.104 147.108 136.175 147.097C136.247 147.082 136.303 147.071 136.346 147.062L136.55 147.966C136.482 147.991 136.387 148.017 136.265 148.043C136.143 148.071 135.988 148.085 135.8 148.085C135.516 148.085 135.238 148.024 134.965 147.902C134.695 147.78 134.471 147.594 134.292 147.344C134.116 147.094 134.028 146.778 134.028 146.398V139.886ZM140.618 148.136C139.987 148.136 139.443 147.997 138.986 147.719C138.531 147.438 138.18 147.045 137.933 146.543C137.689 146.037 137.567 145.449 137.567 144.778C137.567 144.108 137.689 143.517 137.933 143.006C138.18 142.491 138.524 142.091 138.965 141.804C139.408 141.514 139.925 141.369 140.516 141.369C140.857 141.369 141.193 141.426 141.526 141.54C141.858 141.653 142.161 141.838 142.433 142.094C142.706 142.347 142.923 142.682 143.085 143.099C143.247 143.517 143.328 144.031 143.328 144.642V145.068H138.283V144.199H142.305C142.305 143.83 142.232 143.5 142.084 143.21C141.939 142.92 141.732 142.692 141.462 142.524C141.195 142.357 140.879 142.273 140.516 142.273C140.115 142.273 139.769 142.372 139.476 142.571C139.186 142.767 138.963 143.023 138.807 143.338C138.651 143.653 138.573 143.991 138.573 144.352V144.932C138.573 145.426 138.658 145.845 138.828 146.189C139.001 146.53 139.242 146.79 139.548 146.969C139.855 147.145 140.212 147.233 140.618 147.233C140.882 147.233 141.121 147.196 141.334 147.122C141.55 147.045 141.736 146.932 141.892 146.781C142.048 146.628 142.169 146.437 142.254 146.21L143.226 146.483C143.124 146.812 142.952 147.102 142.71 147.352C142.469 147.599 142.171 147.793 141.815 147.932C141.46 148.068 141.061 148.136 140.618 148.136ZM145.432 141.455L147 144.131L148.569 141.455H149.728L147.614 144.727L149.728 148H148.569L147 145.46L145.432 148H144.273L146.353 144.727L144.273 141.455H145.432ZM154.009 141.455V142.307H150.617V141.455H154.009ZM151.606 139.886H152.612V146.125C152.612 146.409 152.653 146.622 152.735 146.764C152.82 146.903 152.928 146.997 153.059 147.045C153.193 147.091 153.333 147.114 153.481 147.114C153.592 147.114 153.683 147.108 153.754 147.097C153.825 147.082 153.881 147.071 153.924 147.062L154.129 147.966C154.06 147.991 153.965 148.017 153.843 148.043C153.721 148.071 153.566 148.085 153.379 148.085C153.095 148.085 152.816 148.024 152.543 147.902C152.273 147.78 152.049 147.594 151.87 147.344C151.694 147.094 151.606 146.778 151.606 146.398V139.886Z" fill="black" fill-opacity="0.5"/>
<path d="M56.0569 126V117.273H57.1137V125.062H61.1705V126H56.0569ZM64.5967 126.153C64.1819 126.153 63.8055 126.075 63.4674 125.919C63.1293 125.76 62.8609 125.531 62.662 125.233C62.4631 124.932 62.3637 124.568 62.3637 124.142C62.3637 123.767 62.4376 123.463 62.5853 123.23C62.733 122.994 62.9305 122.81 63.1776 122.676C63.4248 122.543 63.6975 122.443 63.9958 122.378C64.2969 122.31 64.5995 122.256 64.9035 122.216C65.3012 122.165 65.6236 122.126 65.8708 122.101C66.1208 122.072 66.3026 122.026 66.4163 121.96C66.5327 121.895 66.591 121.781 66.591 121.619V121.585C66.591 121.165 66.4759 120.838 66.2458 120.605C66.0185 120.372 65.6734 120.256 65.2103 120.256C64.7302 120.256 64.3538 120.361 64.081 120.571C63.8083 120.781 63.6165 121.006 63.5057 121.244L62.5512 120.903C62.7217 120.506 62.9489 120.196 63.233 119.974C63.5199 119.75 63.8324 119.594 64.1705 119.506C64.5114 119.415 64.8467 119.369 65.1762 119.369C65.3864 119.369 65.6279 119.395 65.9006 119.446C66.1762 119.494 66.4418 119.595 66.6975 119.749C66.956 119.902 67.1705 120.134 67.341 120.443C67.5114 120.753 67.5967 121.168 67.5967 121.688V126H66.591V125.114H66.5398C66.4717 125.256 66.358 125.408 66.1989 125.57C66.0398 125.732 65.8282 125.869 65.564 125.983C65.2998 126.097 64.9773 126.153 64.5967 126.153ZM64.7501 125.25C65.1478 125.25 65.483 125.172 65.7557 125.016C66.0313 124.859 66.2387 124.658 66.3779 124.411C66.5199 124.163 66.591 123.903 66.591 123.631V122.71C66.5484 122.761 66.4546 122.808 66.3097 122.851C66.1677 122.891 66.0029 122.926 65.8154 122.957C65.6307 122.986 65.4503 123.011 65.2742 123.034C65.1009 123.054 64.9603 123.071 64.8523 123.085C64.591 123.119 64.3467 123.175 64.1194 123.251C63.8949 123.325 63.7131 123.437 63.5739 123.588C63.4376 123.736 63.3694 123.937 63.3694 124.193C63.3694 124.543 63.4986 124.807 63.7572 124.986C64.0185 125.162 64.3495 125.25 64.7501 125.25ZM69.5686 126V117.273H70.5743V120.494H70.6595C70.7334 120.381 70.8356 120.236 70.9663 120.06C71.0998 119.881 71.2902 119.722 71.5373 119.582C71.7873 119.44 72.1254 119.369 72.5516 119.369C73.1027 119.369 73.5885 119.507 74.0089 119.783C74.4294 120.058 74.7575 120.449 74.9933 120.955C75.2291 121.46 75.347 122.057 75.347 122.744C75.347 123.438 75.2291 124.038 74.9933 124.547C74.7575 125.053 74.4308 125.445 74.0132 125.723C73.5956 125.999 73.1141 126.136 72.5686 126.136C72.1481 126.136 71.8115 126.067 71.5587 125.928C71.3058 125.786 71.1112 125.625 70.9748 125.446C70.8385 125.264 70.7334 125.114 70.6595 124.994H70.5402V126H69.5686ZM70.5572 122.727C70.5572 123.222 70.6297 123.658 70.7746 124.036C70.9195 124.411 71.1311 124.705 71.4095 124.918C71.6879 125.128 72.0288 125.233 72.4322 125.233C72.8527 125.233 73.2035 125.122 73.4848 124.901C73.7689 124.676 73.982 124.375 74.124 123.997C74.2689 123.616 74.3413 123.193 74.3413 122.727C74.3413 122.267 74.2703 121.852 74.1283 121.483C73.9891 121.111 73.7774 120.817 73.4933 120.601C73.2121 120.382 72.8584 120.273 72.4322 120.273C72.0231 120.273 71.6794 120.376 71.401 120.584C71.1226 120.788 70.9123 121.075 70.7703 121.445C70.6283 121.811 70.5572 122.239 70.5572 122.727ZM79.6297 126.136C78.999 126.136 78.455 125.997 77.9976 125.719C77.543 125.438 77.1922 125.045 76.945 124.543C76.7007 124.037 76.5785 123.449 76.5785 122.778C76.5785 122.108 76.7007 121.517 76.945 121.006C77.1922 120.491 77.5359 120.091 77.9763 119.804C78.4195 119.514 78.9365 119.369 79.5274 119.369C79.8683 119.369 80.205 119.426 80.5373 119.54C80.8697 119.653 81.1723 119.838 81.445 120.094C81.7177 120.347 81.9351 120.682 82.097 121.099C82.2589 121.517 82.3399 122.031 82.3399 122.642V123.068H77.2945V122.199H81.3172C81.3172 121.83 81.2433 121.5 81.0956 121.21C80.9507 120.92 80.7433 120.692 80.4734 120.524C80.2064 120.357 79.891 120.273 79.5274 120.273C79.1268 120.273 78.7802 120.372 78.4876 120.571C78.1979 120.767 77.9748 121.023 77.8186 121.338C77.6623 121.653 77.5842 121.991 77.5842 122.352V122.932C77.5842 123.426 77.6695 123.845 77.8399 124.189C78.0132 124.53 78.2533 124.79 78.5601 124.969C78.8669 125.145 79.2234 125.233 79.6297 125.233C79.8939 125.233 80.1325 125.196 80.3456 125.122C80.5615 125.045 80.7476 124.932 80.9038 124.781C81.0601 124.628 81.1808 124.437 81.266 124.21L82.2376 124.483C82.1354 124.812 81.9635 125.102 81.722 125.352C81.4805 125.599 81.1822 125.793 80.8271 125.932C80.472 126.068 80.0729 126.136 79.6297 126.136ZM84.8754 117.273V126H83.8697V117.273H84.8754Z" fill="black"/>
</svg>
