<svg width="326" height="210" viewBox="0 0 326 210" fill="none" xmlns="http://www.w3.org/2000/svg">
<circle cx="85" cy="9" r="8.5" fill="white" stroke="black"/>
<rect x="70.5" y="86.5" width="255" height="47" rx="4.5" fill="white" stroke="black"/>
<path d="M86.0568 115V106.273H89.0057C89.6903 106.273 90.25 106.396 90.6847 106.643C91.1222 106.888 91.446 107.219 91.6562 107.636C91.8665 108.054 91.9716 108.52 91.9716 109.034C91.9716 109.548 91.8665 110.016 91.6562 110.436C91.4489 110.857 91.1278 111.192 90.6932 111.442C90.2585 111.689 89.7017 111.812 89.0227 111.812H86.9091V110.875H88.9886C89.4574 110.875 89.8338 110.794 90.1179 110.632C90.402 110.47 90.608 110.251 90.7358 109.976C90.8665 109.697 90.9318 109.384 90.9318 109.034C90.9318 108.685 90.8665 108.372 90.7358 108.097C90.608 107.821 90.4006 107.605 90.1136 107.449C89.8267 107.29 89.446 107.21 88.9716 107.21H87.1136V115H86.0568ZM94.5433 106.273V115H93.5376V106.273H94.5433ZM98.3114 115.153C97.8967 115.153 97.5202 115.075 97.1822 114.919C96.8441 114.76 96.5756 114.531 96.3768 114.233C96.1779 113.932 96.0785 113.568 96.0785 113.142C96.0785 112.767 96.1523 112.463 96.3001 112.23C96.4478 111.994 96.6452 111.81 96.8924 111.676C97.1396 111.543 97.4123 111.443 97.7106 111.378C98.0117 111.31 98.3143 111.256 98.6183 111.216C99.016 111.165 99.3384 111.126 99.5856 111.101C99.8356 111.072 100.017 111.026 100.131 110.96C100.248 110.895 100.306 110.781 100.306 110.619V110.585C100.306 110.165 100.191 109.838 99.9606 109.605C99.7333 109.372 99.3881 109.256 98.9251 109.256C98.445 109.256 98.0685 109.361 97.7958 109.571C97.5231 109.781 97.3313 110.006 97.2205 110.244L96.266 109.903C96.4364 109.506 96.6637 109.196 96.9478 108.974C97.2347 108.75 97.5472 108.594 97.8853 108.506C98.2262 108.415 98.5614 108.369 98.891 108.369C99.1012 108.369 99.3427 108.395 99.6154 108.446C99.891 108.494 100.157 108.595 100.412 108.749C100.671 108.902 100.885 109.134 101.056 109.443C101.226 109.753 101.311 110.168 101.311 110.688V115H100.306V114.114H100.255C100.186 114.256 100.073 114.408 99.9137 114.57C99.7546 114.732 99.543 114.869 99.2788 114.983C99.0146 115.097 98.6921 115.153 98.3114 115.153ZM98.4648 114.25C98.8626 114.25 99.1978 114.172 99.4705 114.016C99.7461 113.859 99.9535 113.658 100.093 113.411C100.235 113.163 100.306 112.903 100.306 112.631V111.71C100.263 111.761 100.169 111.808 100.025 111.851C99.8825 111.891 99.7177 111.926 99.5302 111.957C99.3455 111.986 99.1651 112.011 98.989 112.034C98.8157 112.054 98.6751 112.071 98.5671 112.085C98.3058 112.119 98.0614 112.175 97.8342 112.251C97.6097 112.325 97.4279 112.437 97.2887 112.588C97.1523 112.736 97.0842 112.937 97.0842 113.193C97.0842 113.543 97.2134 113.807 97.4719 113.986C97.7333 114.162 98.0643 114.25 98.4648 114.25ZM105.806 115.136C105.192 115.136 104.664 114.991 104.221 114.702C103.778 114.412 103.437 114.013 103.198 113.504C102.96 112.996 102.84 112.415 102.84 111.761C102.84 111.097 102.962 110.51 103.207 110.001C103.454 109.49 103.798 109.091 104.238 108.804C104.681 108.514 105.198 108.369 105.789 108.369C106.249 108.369 106.664 108.455 107.033 108.625C107.403 108.795 107.705 109.034 107.941 109.341C108.177 109.648 108.323 110.006 108.38 110.415H107.374C107.298 110.116 107.127 109.852 106.863 109.622C106.602 109.389 106.249 109.273 105.806 109.273C105.414 109.273 105.07 109.375 104.775 109.58C104.482 109.781 104.254 110.067 104.089 110.436C103.927 110.803 103.846 111.233 103.846 111.727C103.846 112.233 103.925 112.673 104.085 113.048C104.246 113.423 104.474 113.714 104.766 113.922C105.062 114.129 105.408 114.233 105.806 114.233C106.067 114.233 106.305 114.188 106.518 114.097C106.731 114.006 106.911 113.875 107.059 113.705C107.207 113.534 107.312 113.33 107.374 113.091H108.38C108.323 113.477 108.183 113.825 107.958 114.135C107.737 114.442 107.442 114.686 107.076 114.868C106.712 115.047 106.289 115.136 105.806 115.136ZM112.594 115.136C111.964 115.136 111.42 114.997 110.962 114.719C110.508 114.438 110.157 114.045 109.91 113.543C109.665 113.037 109.543 112.449 109.543 111.778C109.543 111.108 109.665 110.517 109.91 110.006C110.157 109.491 110.501 109.091 110.941 108.804C111.384 108.514 111.901 108.369 112.492 108.369C112.833 108.369 113.17 108.426 113.502 108.54C113.835 108.653 114.137 108.838 114.41 109.094C114.683 109.347 114.9 109.682 115.062 110.099C115.224 110.517 115.305 111.031 115.305 111.642V112.068H110.259V111.199H114.282C114.282 110.83 114.208 110.5 114.06 110.21C113.915 109.92 113.708 109.692 113.438 109.524C113.171 109.357 112.856 109.273 112.492 109.273C112.092 109.273 111.745 109.372 111.452 109.571C111.163 109.767 110.94 110.023 110.783 110.338C110.627 110.653 110.549 110.991 110.549 111.352V111.932C110.549 112.426 110.634 112.845 110.805 113.189C110.978 113.53 111.218 113.79 111.525 113.969C111.832 114.145 112.188 114.233 112.594 114.233C112.859 114.233 113.097 114.196 113.31 114.122C113.526 114.045 113.712 113.932 113.869 113.781C114.025 113.628 114.146 113.437 114.231 113.21L115.202 113.483C115.1 113.812 114.928 114.102 114.687 114.352C114.445 114.599 114.147 114.793 113.792 114.932C113.437 115.068 113.038 115.136 112.594 115.136ZM121.215 111.062V115H120.21V106.273H121.215V109.477H121.3C121.454 109.139 121.684 108.871 121.991 108.672C122.3 108.47 122.712 108.369 123.227 108.369C123.673 108.369 124.063 108.459 124.398 108.638C124.734 108.814 124.994 109.085 125.178 109.452C125.366 109.815 125.46 110.278 125.46 110.841V115H124.454V110.909C124.454 110.389 124.319 109.987 124.049 109.703C123.782 109.416 123.411 109.273 122.937 109.273C122.607 109.273 122.312 109.342 122.05 109.482C121.792 109.621 121.587 109.824 121.437 110.091C121.289 110.358 121.215 110.682 121.215 111.062ZM129.958 115.136C129.368 115.136 128.849 114.996 128.403 114.714C127.96 114.433 127.613 114.04 127.363 113.534C127.116 113.028 126.993 112.437 126.993 111.761C126.993 111.08 127.116 110.484 127.363 109.976C127.613 109.467 127.96 109.072 128.403 108.791C128.849 108.51 129.368 108.369 129.958 108.369C130.549 108.369 131.066 108.51 131.51 108.791C131.956 109.072 132.302 109.467 132.549 109.976C132.799 110.484 132.924 111.08 132.924 111.761C132.924 112.437 132.799 113.028 132.549 113.534C132.302 114.04 131.956 114.433 131.51 114.714C131.066 114.996 130.549 115.136 129.958 115.136ZM129.958 114.233C130.407 114.233 130.777 114.118 131.066 113.888C131.356 113.658 131.571 113.355 131.71 112.98C131.849 112.605 131.919 112.199 131.919 111.761C131.919 111.324 131.849 110.916 131.71 110.538C131.571 110.161 131.356 109.855 131.066 109.622C130.777 109.389 130.407 109.273 129.958 109.273C129.51 109.273 129.14 109.389 128.85 109.622C128.561 109.855 128.346 110.161 128.207 110.538C128.068 110.916 127.998 111.324 127.998 111.761C127.998 112.199 128.068 112.605 128.207 112.98C128.346 113.355 128.561 113.658 128.85 113.888C129.14 114.118 129.51 114.233 129.958 114.233ZM135.465 106.273V115H134.46V106.273H135.465ZM139.779 115.136C139.233 115.136 138.752 114.999 138.334 114.723C137.917 114.445 137.59 114.053 137.354 113.547C137.118 113.038 137 112.438 137 111.744C137 111.057 137.118 110.46 137.354 109.955C137.59 109.449 137.918 109.058 138.338 108.783C138.759 108.507 139.245 108.369 139.796 108.369C140.222 108.369 140.559 108.44 140.806 108.582C141.056 108.722 141.246 108.881 141.377 109.06C141.51 109.236 141.614 109.381 141.688 109.494H141.773V106.273H142.779V115H141.807V113.994H141.688C141.614 114.114 141.509 114.264 141.373 114.446C141.236 114.625 141.042 114.786 140.789 114.928C140.536 115.067 140.199 115.136 139.779 115.136ZM139.915 114.233C140.319 114.233 140.659 114.128 140.938 113.918C141.216 113.705 141.428 113.411 141.573 113.036C141.718 112.658 141.79 112.222 141.79 111.727C141.79 111.239 141.719 110.811 141.577 110.445C141.435 110.075 141.225 109.788 140.946 109.584C140.668 109.376 140.324 109.273 139.915 109.273C139.489 109.273 139.134 109.382 138.85 109.601C138.569 109.817 138.357 110.111 138.215 110.483C138.076 110.852 138.006 111.267 138.006 111.727C138.006 112.193 138.077 112.616 138.219 112.997C138.364 113.375 138.577 113.676 138.858 113.901C139.142 114.122 139.495 114.233 139.915 114.233ZM147.505 115.136C146.874 115.136 146.33 114.997 145.873 114.719C145.418 114.438 145.067 114.045 144.82 113.543C144.576 113.037 144.453 112.449 144.453 111.778C144.453 111.108 144.576 110.517 144.82 110.006C145.067 109.491 145.411 109.091 145.851 108.804C146.294 108.514 146.811 108.369 147.402 108.369C147.743 108.369 148.08 108.426 148.412 108.54C148.745 108.653 149.047 108.838 149.32 109.094C149.593 109.347 149.81 109.682 149.972 110.099C150.134 110.517 150.215 111.031 150.215 111.642V112.068H145.169V111.199H149.192C149.192 110.83 149.118 110.5 148.971 110.21C148.826 109.92 148.618 109.692 148.348 109.524C148.081 109.357 147.766 109.273 147.402 109.273C147.002 109.273 146.655 109.372 146.363 109.571C146.073 109.767 145.85 110.023 145.694 110.338C145.537 110.653 145.459 110.991 145.459 111.352V111.932C145.459 112.426 145.544 112.845 145.715 113.189C145.888 113.53 146.128 113.79 146.435 113.969C146.742 114.145 147.098 114.233 147.505 114.233C147.769 114.233 148.007 114.196 148.221 114.122C148.436 114.045 148.623 113.932 148.779 113.781C148.935 113.628 149.056 113.437 149.141 113.21L150.113 113.483C150.01 113.812 149.838 114.102 149.597 114.352C149.355 114.599 149.057 114.793 148.702 114.932C148.347 115.068 147.948 115.136 147.505 115.136ZM151.745 115V108.455H152.716V109.443H152.784C152.904 109.119 153.12 108.857 153.432 108.655C153.745 108.453 154.097 108.352 154.489 108.352C154.563 108.352 154.655 108.354 154.766 108.357C154.877 108.359 154.961 108.364 155.017 108.369V109.392C154.983 109.384 154.905 109.371 154.783 109.354C154.664 109.334 154.537 109.324 154.404 109.324C154.086 109.324 153.801 109.391 153.551 109.524C153.304 109.655 153.108 109.837 152.963 110.07C152.821 110.3 152.75 110.562 152.75 110.858V115H151.745ZM162.431 108.455V109.307H159.039V108.455H162.431ZM160.028 106.886H161.033V113.125C161.033 113.409 161.075 113.622 161.157 113.764C161.242 113.903 161.35 113.997 161.481 114.045C161.614 114.091 161.755 114.114 161.903 114.114C162.013 114.114 162.104 114.108 162.175 114.097C162.246 114.082 162.303 114.071 162.346 114.062L162.55 114.966C162.482 114.991 162.387 115.017 162.265 115.043C162.143 115.071 161.988 115.085 161.8 115.085C161.516 115.085 161.238 115.024 160.965 114.902C160.695 114.78 160.471 114.594 160.292 114.344C160.116 114.094 160.028 113.778 160.028 113.398V106.886ZM166.618 115.136C165.987 115.136 165.443 114.997 164.986 114.719C164.531 114.438 164.18 114.045 163.933 113.543C163.689 113.037 163.567 112.449 163.567 111.778C163.567 111.108 163.689 110.517 163.933 110.006C164.18 109.491 164.524 109.091 164.964 108.804C165.408 108.514 165.925 108.369 166.516 108.369C166.857 108.369 167.193 108.426 167.526 108.54C167.858 108.653 168.161 108.838 168.433 109.094C168.706 109.347 168.923 109.682 169.085 110.099C169.247 110.517 169.328 111.031 169.328 111.642V112.068H164.283V111.199H168.305C168.305 110.83 168.232 110.5 168.084 110.21C167.939 109.92 167.732 109.692 167.462 109.524C167.195 109.357 166.879 109.273 166.516 109.273C166.115 109.273 165.768 109.372 165.476 109.571C165.186 109.767 164.963 110.023 164.807 110.338C164.651 110.653 164.572 110.991 164.572 111.352V111.932C164.572 112.426 164.658 112.845 164.828 113.189C165.001 113.53 165.241 113.79 165.548 113.969C165.855 114.145 166.212 114.233 166.618 114.233C166.882 114.233 167.121 114.196 167.334 114.122C167.55 114.045 167.736 113.932 167.892 113.781C168.048 113.628 168.169 113.437 168.254 113.21L169.226 113.483C169.124 113.812 168.952 114.102 168.71 114.352C168.469 114.599 168.17 114.793 167.815 114.932C167.46 115.068 167.061 115.136 166.618 115.136ZM171.432 108.455L173 111.131L174.569 108.455H175.728L173.614 111.727L175.728 115H174.569L173 112.46L171.432 115H170.273L172.353 111.727L170.273 108.455H171.432ZM180.009 108.455V109.307H176.617V108.455H180.009ZM177.606 106.886H178.612V113.125C178.612 113.409 178.653 113.622 178.735 113.764C178.82 113.903 178.928 113.997 179.059 114.045C179.192 114.091 179.333 114.114 179.481 114.114C179.592 114.114 179.683 114.108 179.754 114.097C179.825 114.082 179.881 114.071 179.924 114.062L180.129 114.966C180.06 114.991 179.965 115.017 179.843 115.043C179.721 115.071 179.566 115.085 179.379 115.085C179.094 115.085 178.816 115.024 178.543 114.902C178.273 114.78 178.049 114.594 177.87 114.344C177.694 114.094 177.606 113.778 177.606 113.398V106.886Z" fill="black"/>
<path d="M71.0568 76V67.2727H72.1136V75.0625H76.1705V76H71.0568ZM79.5966 76.1534C79.1818 76.1534 78.8054 76.0753 78.4673 75.919C78.1293 75.7599 77.8608 75.5312 77.6619 75.233C77.4631 74.9318 77.3636 74.5682 77.3636 74.142C77.3636 73.767 77.4375 73.4631 77.5852 73.2301C77.733 72.9943 77.9304 72.8097 78.1776 72.6761C78.4247 72.5426 78.6974 72.4432 78.9957 72.3778C79.2969 72.3097 79.5994 72.2557 79.9034 72.2159C80.3011 72.1648 80.6236 72.1264 80.8707 72.1009C81.1207 72.0724 81.3026 72.0256 81.4162 71.9602C81.5327 71.8949 81.5909 71.7812 81.5909 71.6193V71.5852C81.5909 71.1648 81.4759 70.8381 81.2457 70.6051C81.0185 70.3722 80.6733 70.2557 80.2102 70.2557C79.7301 70.2557 79.3537 70.3608 79.081 70.571C78.8082 70.7812 78.6165 71.0057 78.5057 71.2443L77.5511 70.9034C77.7216 70.5057 77.9489 70.196 78.233 69.9744C78.5199 69.75 78.8324 69.5937 79.1705 69.5057C79.5114 69.4148 79.8466 69.3693 80.1761 69.3693C80.3864 69.3693 80.6278 69.3949 80.9006 69.446C81.1761 69.4943 81.4418 69.5952 81.6974 69.7486C81.956 69.902 82.1705 70.1335 82.3409 70.4432C82.5114 70.7528 82.5966 71.1676 82.5966 71.6875V76H81.5909V75.1136H81.5398C81.4716 75.2557 81.358 75.4077 81.1989 75.5696C81.0398 75.7315 80.8281 75.8693 80.5639 75.983C80.2997 76.0966 79.9773 76.1534 79.5966 76.1534ZM79.75 75.25C80.1477 75.25 80.483 75.1719 80.7557 75.0156C81.0313 74.8594 81.2386 74.6577 81.3778 74.4105C81.5199 74.1634 81.5909 73.9034 81.5909 73.6307V72.7102C81.5483 72.7614 81.4545 72.8082 81.3097 72.8509C81.1676 72.8906 81.0028 72.9261 80.8153 72.9574C80.6307 72.9858 80.4503 73.0114 80.2741 73.0341C80.1009 73.054 79.9602 73.071 79.8523 73.0852C79.5909 73.1193 79.3466 73.1747 79.1193 73.2514C78.8949 73.3253 78.7131 73.4375 78.5739 73.5881C78.4375 73.7358 78.3693 73.9375 78.3693 74.1932C78.3693 74.5426 78.4986 74.8068 78.7571 74.9858C79.0185 75.1619 79.3494 75.25 79.75 75.25ZM84.5685 76V67.2727H85.5742V70.4943H85.6594C85.7333 70.3807 85.8356 70.2358 85.9663 70.0597C86.0998 69.8807 86.2901 69.7216 86.5373 69.5824C86.7873 69.4403 87.1254 69.3693 87.5515 69.3693C88.1026 69.3693 88.5884 69.5071 89.0089 69.7827C89.4293 70.0582 89.7575 70.4489 89.9933 70.9545C90.229 71.4602 90.3469 72.0568 90.3469 72.7443C90.3469 73.4375 90.229 74.0384 89.9933 74.5469C89.7575 75.0526 89.4308 75.4446 89.0131 75.723C88.5955 75.9986 88.114 76.1364 87.5685 76.1364C87.1481 76.1364 86.8114 76.0668 86.5586 75.9276C86.3058 75.7855 86.1112 75.625 85.9748 75.446C85.8384 75.2642 85.7333 75.1136 85.6594 74.9943H85.5401V76H84.5685ZM85.5572 72.7273C85.5572 73.2216 85.6296 73.6577 85.7745 74.0355C85.9194 74.4105 86.131 74.7045 86.4094 74.9176C86.6879 75.1278 87.0288 75.233 87.4322 75.233C87.8526 75.233 88.2035 75.1222 88.4847 74.9006C88.7688 74.6761 88.9819 74.375 89.1239 73.9972C89.2688 73.6165 89.3413 73.1932 89.3413 72.7273C89.3413 72.267 89.2702 71.8523 89.1282 71.483C88.989 71.1108 88.7773 70.8168 88.4933 70.6009C88.212 70.3821 87.8583 70.2727 87.4322 70.2727C87.0231 70.2727 86.6793 70.3764 86.4009 70.5838C86.1225 70.7884 85.9123 71.0753 85.7702 71.4446C85.6282 71.8111 85.5572 72.2386 85.5572 72.7273ZM94.6296 76.1364C93.9989 76.1364 93.4549 75.9972 92.9975 75.7188C92.543 75.4375 92.1921 75.0455 91.945 74.5426C91.7006 74.0369 91.5785 73.4489 91.5785 72.7784C91.5785 72.108 91.7006 71.517 91.945 71.0057C92.1921 70.4915 92.5359 70.0909 92.9762 69.804C93.4194 69.5142 93.9364 69.3693 94.5273 69.3693C94.8683 69.3693 95.2049 69.4261 95.5373 69.5398C95.8697 69.6534 96.1722 69.8381 96.445 70.0938C96.7177 70.3466 96.935 70.6818 97.0969 71.0994C97.2589 71.517 97.3398 72.0312 97.3398 72.642V73.0682H92.2944V72.1989H96.3171C96.3171 71.8295 96.2433 71.5 96.0955 71.2102C95.9506 70.9205 95.7433 70.6918 95.4734 70.5241C95.2063 70.3565 94.891 70.2727 94.5273 70.2727C94.1268 70.2727 93.7802 70.3722 93.4876 70.571C93.1978 70.767 92.9748 71.0227 92.8185 71.3381C92.6623 71.6534 92.5842 71.9915 92.5842 72.3523V72.9318C92.5842 73.4261 92.6694 73.8452 92.8398 74.1889C93.0131 74.5298 93.2532 74.7898 93.56 74.9688C93.8668 75.1449 94.2234 75.233 94.6296 75.233C94.8938 75.233 95.1325 75.196 95.3455 75.1222C95.5614 75.0455 95.7475 74.9318 95.9038 74.7812C96.06 74.6278 96.1808 74.4375 96.266 74.2102L97.2376 74.483C97.1353 74.8125 96.9634 75.1023 96.7219 75.3523C96.4805 75.5994 96.1822 75.7926 95.8271 75.9318C95.4719 76.0682 95.0728 76.1364 94.6296 76.1364ZM99.8754 67.2727V76H98.8697V67.2727H99.8754Z" fill="black"/>
<line x1="60" y1="110.5" x2="28" y2="110.5" stroke="black"/>
<line x1="85.5" y1="25" x2="85.5" y2="57" stroke="black"/>
<line x1="140.5" y1="70" x2="140.5" y2="102" stroke="black"/>
<line x1="108.5" y1="153" x2="108.5" y2="185" stroke="black"/>
<path d="M82.9034 12V11.233L85.7841 8.07955C86.1222 7.71023 86.4006 7.3892 86.6193 7.11648C86.8381 6.84091 87 6.58239 87.1051 6.34091C87.2131 6.09659 87.267 5.84091 87.267 5.57386C87.267 5.26705 87.1932 5.00142 87.0455 4.77699C86.9006 4.55256 86.7017 4.37926 86.4489 4.2571C86.196 4.13494 85.9119 4.07386 85.5966 4.07386C85.2614 4.07386 84.9688 4.14347 84.7188 4.28267C84.4716 4.41903 84.2798 4.6108 84.1435 4.85795C84.0099 5.10511 83.9432 5.39489 83.9432 5.72727H82.9375C82.9375 5.21591 83.0554 4.76705 83.2912 4.38068C83.527 3.99432 83.848 3.69318 84.2543 3.47727C84.6634 3.26136 85.1222 3.15341 85.6307 3.15341C86.142 3.15341 86.5952 3.26136 86.9901 3.47727C87.3849 3.69318 87.6946 3.98437 87.919 4.35085C88.1435 4.71733 88.2557 5.125 88.2557 5.57386C88.2557 5.89489 88.1974 6.20881 88.081 6.51562C87.9673 6.8196 87.7685 7.15909 87.4844 7.53409C87.2031 7.90625 86.8125 8.3608 86.3125 8.89773L84.3523 10.9943V11.0625H88.4091V12H82.9034Z" fill="black"/>
<circle cx="108" cy="201" r="8.5" fill="white" stroke="black"/>
<path d="M105.699 202.21V201.341L109.534 195.273H110.165V196.619H109.739L106.841 201.205V201.273H112.006V202.21H105.699ZM109.807 204V201.946V201.541V195.273H110.812V204H109.807Z" fill="black"/>
<circle cx="140" cy="55" r="8.5" fill="white" stroke="black"/>
<path d="M137.699 56.2102V55.3409L141.534 49.2727H142.165V50.6193H141.739L138.841 55.2045V55.2727H144.006V56.2102H137.699ZM141.807 58V55.946V55.5412V49.2727H142.812V58H141.807Z" fill="black"/>
<circle cx="9" cy="111" r="8.5" fill="white" stroke="black"/>
<path d="M9.97159 105.273V114H8.91477V106.381H8.86364L6.73295 107.795V106.722L8.91477 105.273H9.97159Z" fill="black"/>
<path d="M73.0568 151V142.273H74.1136V146.159H78.767V142.273H79.8239V151H78.767V147.097H74.1136V151H73.0568ZM84.5476 151.136C83.9169 151.136 83.3729 150.997 82.9155 150.719C82.4609 150.438 82.1101 150.045 81.8629 149.543C81.6186 149.037 81.4964 148.449 81.4964 147.778C81.4964 147.108 81.6186 146.517 81.8629 146.006C82.1101 145.491 82.4538 145.091 82.8942 144.804C83.3374 144.514 83.8544 144.369 84.4453 144.369C84.7862 144.369 85.1229 144.426 85.4553 144.54C85.7876 144.653 86.0902 144.838 86.3629 145.094C86.6357 145.347 86.853 145.682 87.0149 146.099C87.1768 146.517 87.2578 147.031 87.2578 147.642V148.068H82.2124V147.199H86.2351C86.2351 146.83 86.1612 146.5 86.0135 146.21C85.8686 145.92 85.6612 145.692 85.3913 145.524C85.1243 145.357 84.8089 145.273 84.4453 145.273C84.0447 145.273 83.6982 145.372 83.4055 145.571C83.1158 145.767 82.8928 146.023 82.7365 146.338C82.5803 146.653 82.5021 146.991 82.5021 147.352V147.932C82.5021 148.426 82.5874 148.845 82.7578 149.189C82.9311 149.53 83.1712 149.79 83.478 149.969C83.7848 150.145 84.1413 150.233 84.5476 150.233C84.8118 150.233 85.0504 150.196 85.2635 150.122C85.4794 150.045 85.6655 149.932 85.8217 149.781C85.978 149.628 86.0987 149.437 86.1839 149.21L87.1555 149.483C87.0533 149.812 86.8814 150.102 86.6399 150.352C86.3984 150.599 86.1001 150.793 85.745 150.932C85.3899 151.068 84.9908 151.136 84.5476 151.136ZM89.7933 142.273V151H88.7876V142.273H89.7933ZM91.6353 153.455V144.455H92.6069V145.494H92.7262C92.8001 145.381 92.9023 145.236 93.033 145.06C93.1665 144.881 93.3569 144.722 93.604 144.582C93.854 144.44 94.1921 144.369 94.6183 144.369C95.1694 144.369 95.6552 144.507 96.0756 144.783C96.4961 145.058 96.8242 145.449 97.06 145.955C97.2958 146.46 97.4137 147.057 97.4137 147.744C97.4137 148.438 97.2958 149.038 97.06 149.547C96.8242 150.053 96.4975 150.445 96.0799 150.723C95.6623 150.999 95.1808 151.136 94.6353 151.136C94.2148 151.136 93.8782 151.067 93.6254 150.928C93.3725 150.786 93.1779 150.625 93.0415 150.446C92.9052 150.264 92.8001 150.114 92.7262 149.994H92.641V153.455H91.6353ZM92.6239 147.727C92.6239 148.222 92.6964 148.658 92.8413 149.036C92.9862 149.411 93.1978 149.705 93.4762 149.918C93.7546 150.128 94.0955 150.233 94.4989 150.233C94.9194 150.233 95.2702 150.122 95.5515 149.901C95.8356 149.676 96.0487 149.375 96.1907 148.997C96.3356 148.616 96.408 148.193 96.408 147.727C96.408 147.267 96.337 146.852 96.195 146.483C96.0558 146.111 95.8441 145.817 95.56 145.601C95.2788 145.382 94.9251 145.273 94.4989 145.273C94.0898 145.273 93.7461 145.376 93.4677 145.584C93.1893 145.788 92.979 146.075 92.837 146.445C92.695 146.811 92.6239 147.239 92.6239 147.727ZM101.692 151.136C101.061 151.136 100.517 150.997 100.06 150.719C99.6055 150.438 99.2546 150.045 99.0075 149.543C98.7631 149.037 98.641 148.449 98.641 147.778C98.641 147.108 98.7631 146.517 99.0075 146.006C99.2546 145.491 99.5984 145.091 100.039 144.804C100.482 144.514 100.999 144.369 101.59 144.369C101.931 144.369 102.267 144.426 102.6 144.54C102.932 144.653 103.235 144.838 103.507 145.094C103.78 145.347 103.998 145.682 104.159 146.099C104.321 146.517 104.402 147.031 104.402 147.642V148.068H99.3569V147.199H103.38C103.38 146.83 103.306 146.5 103.158 146.21C103.013 145.92 102.806 145.692 102.536 145.524C102.269 145.357 101.953 145.273 101.59 145.273C101.189 145.273 100.843 145.372 100.55 145.571C100.26 145.767 100.037 146.023 99.881 146.338C99.7248 146.653 99.6467 146.991 99.6467 147.352V147.932C99.6467 148.426 99.7319 148.845 99.9023 149.189C100.076 149.53 100.316 149.79 100.623 149.969C100.929 150.145 101.286 150.233 101.692 150.233C101.956 150.233 102.195 150.196 102.408 150.122C102.624 150.045 102.81 149.932 102.966 149.781C103.123 149.628 103.243 149.437 103.328 149.21L104.3 149.483C104.198 149.812 104.026 150.102 103.784 150.352C103.543 150.599 103.245 150.793 102.89 150.932C102.534 151.068 102.135 151.136 101.692 151.136ZM105.932 151V144.455H106.904V145.443H106.972C107.091 145.119 107.307 144.857 107.62 144.655C107.932 144.453 108.284 144.352 108.676 144.352C108.75 144.352 108.843 144.354 108.953 144.357C109.064 144.359 109.148 144.364 109.205 144.369V145.392C109.171 145.384 109.093 145.371 108.971 145.354C108.851 145.334 108.725 145.324 108.591 145.324C108.273 145.324 107.989 145.391 107.739 145.524C107.492 145.655 107.296 145.837 107.151 146.07C107.009 146.3 106.938 146.562 106.938 146.858V151H105.932ZM116.619 144.455V145.307H113.227V144.455H116.619ZM114.215 142.886H115.221V149.125C115.221 149.409 115.262 149.622 115.344 149.764C115.43 149.903 115.538 149.997 115.668 150.045C115.802 150.091 115.942 150.114 116.09 150.114C116.201 150.114 116.292 150.108 116.363 150.097C116.434 150.082 116.491 150.071 116.533 150.062L116.738 150.966C116.67 150.991 116.575 151.017 116.452 151.043C116.33 151.071 116.175 151.085 115.988 151.085C115.704 151.085 115.425 151.024 115.153 150.902C114.883 150.78 114.658 150.594 114.479 150.344C114.303 150.094 114.215 149.778 114.215 149.398V142.886ZM120.805 151.136C120.175 151.136 119.631 150.997 119.173 150.719C118.719 150.438 118.368 150.045 118.121 149.543C117.876 149.037 117.754 148.449 117.754 147.778C117.754 147.108 117.876 146.517 118.121 146.006C118.368 145.491 118.712 145.091 119.152 144.804C119.595 144.514 120.112 144.369 120.703 144.369C121.044 144.369 121.381 144.426 121.713 144.54C122.045 144.653 122.348 144.838 122.621 145.094C122.893 145.347 123.111 145.682 123.273 146.099C123.435 146.517 123.516 147.031 123.516 147.642V148.068H118.47V147.199H122.493C122.493 146.83 122.419 146.5 122.271 146.21C122.126 145.92 121.919 145.692 121.649 145.524C121.382 145.357 121.067 145.273 120.703 145.273C120.303 145.273 119.956 145.372 119.663 145.571C119.374 145.767 119.151 146.023 118.994 146.338C118.838 146.653 118.76 146.991 118.76 147.352V147.932C118.76 148.426 118.845 148.845 119.016 149.189C119.189 149.53 119.429 149.79 119.736 149.969C120.043 150.145 120.399 150.233 120.805 150.233C121.07 150.233 121.308 150.196 121.521 150.122C121.737 150.045 121.923 149.932 122.08 149.781C122.236 149.628 122.357 149.437 122.442 149.21L123.413 149.483C123.311 149.812 123.139 150.102 122.898 150.352C122.656 150.599 122.358 150.793 122.003 150.932C121.648 151.068 121.249 151.136 120.805 151.136ZM125.62 144.455L127.188 147.131L128.756 144.455H129.915L127.801 147.727L129.915 151H128.756L127.188 148.46L125.62 151H124.461L126.54 147.727L124.461 144.455H125.62ZM134.197 144.455V145.307H130.805V144.455H134.197ZM131.793 142.886H132.799V149.125C132.799 149.409 132.84 149.622 132.923 149.764C133.008 149.903 133.116 149.997 133.246 150.045C133.38 150.091 133.521 150.114 133.668 150.114C133.779 150.114 133.87 150.108 133.941 150.097C134.012 150.082 134.069 150.071 134.112 150.062L134.316 150.966C134.248 150.991 134.153 151.017 134.031 151.043C133.908 151.071 133.754 151.085 133.566 151.085C133.282 151.085 133.004 151.024 132.731 150.902C132.461 150.78 132.237 150.594 132.058 150.344C131.881 150.094 131.793 149.778 131.793 149.398V142.886Z" fill="black"/>
</svg>
